<?xml version="1.0" encoding="UTF-8" standalone="no"?>
<!-- Created with Inkscape (http://www.inkscape.org/) -->

<svg
   width="128"
   height="128"
   viewBox="0 0 33.866666 33.866666"
   version="1.1"
   id="svg1"
   inkscape:version="1.4 (86a8ad7, 2024-10-11)"
   sodipodi:docname="extinct-text.svg"
   xmlns:inkscape="http://www.inkscape.org/namespaces/inkscape"
   xmlns:sodipodi="http://sodipodi.sourceforge.net/DTD/sodipodi-0.dtd"
   xmlns="http://www.w3.org/2000/svg"
   xmlns:svg="http://www.w3.org/2000/svg">
  <sodipodi:namedview
     id="namedview1"
     pagecolor="#000000"
     bordercolor="#000000"
     borderopacity="0.25"
     inkscape:showpageshadow="2"
     inkscape:pageopacity="0.0"
     inkscape:pagecheckerboard="0"
     inkscape:deskcolor="#d1d1d1"
     inkscape:document-units="mm"
     inkscape:zoom="4.4580873"
     inkscape:cx="74.247088"
     inkscape:cy="78.845473"
     inkscape:window-width="1920"
     inkscape:window-height="1009"
     inkscape:window-x="-8"
     inkscape:window-y="-8"
     inkscape:window-maximized="1"
     inkscape:current-layer="layer1" />
  <defs
     id="defs1" />
  <g
     inkscape:label="Layer 1"
     inkscape:groupmode="layer"
     id="layer1">
    <text
       xml:space="preserve"
       style="font-style:normal;font-variant:normal;font-weight:normal;font-stretch:normal;font-size:7.03px;font-family:Hyperspace;-inkscape-font-specification:Hyperspace;text-align:start;writing-mode:lr-tb;direction:ltr;text-anchor:start;fill:none;stroke:#f86185;stroke-width:0.585832;stroke-linecap:round;stroke-linejoin:round;stroke-miterlimit:11.2"
       x="35.770065"
       y="12.598657"
       id="text1"><tspan
         id="tspan1"
         style="font-style:normal;font-variant:normal;font-weight:normal;font-stretch:normal;font-family:Hyperspace;-inkscape-font-specification:Hyperspace;fill:none;stroke-width:0.585832"
         x="35.770065"
         y="12.598657"
         sodipodi:role="line">Extinct</tspan></text>
    <path
       style="font-stretch:condensed;font-size:10.5795px;font-family:Impact;-inkscape-font-specification:'Impact Condensed';fill:#ffffff;stroke-width:0.881622;stroke-linecap:round;stroke-linejoin:round;stroke-miterlimit:11.2"
       d="m 2.496029,12.293154 h 3.6263717 v 1.67371 H 4.6708189 v 1.585892 h 1.3585979 v 1.591057 H 4.6708189 v 1.839015 h 1.5962234 v 1.67371 H 2.496029 Z m 8.466699,1.508405 -0.831689,3.275099 1.007326,3.57988 H 9.1082165 Q 8.8086017,19.303106 8.6536286,18.326775 8.4469977,19.545897 8.2042065,20.656538 H 6.4581757 l 0.8988442,-3.57988 -0.8988442,-3.275099 h 1.7460308 q 0.4184275,2.097303 0.4494221,2.381421 0.2996147,-1.751197 0.4545879,-2.381421 z m 2.655207,-0.914341 v 1.079646 h 0.563069 v 1.084812 h -0.563069 v 3.667698 q 0,0.676716 0.06716,0.754202 0.07232,0.07749 0.583732,0.07749 v 1.105475 h -0.842021 q -0.712876,0 -1.017657,-0.05682 -0.30478,-0.06199 -0.53724,-0.273786 -0.23246,-0.216963 -0.289283,-0.490749 -0.05682,-0.278951 -0.05682,-1.301774 v -3.48173 h -0.449422 v -1.084812 h 0.449422 v -1.079646 z m 3.171783,-0.594064 v 1.089978 h -2.148961 v -1.089978 z m 0,1.508405 v 6.854979 h -2.148961 v -6.854979 z m 2.872169,0 -0.03616,0.630224 q 0.227294,-0.377101 0.552737,-0.563069 0.33061,-0.191133 0.759369,-0.191133 0.53724,0 0.878181,0.253122 0.340941,0.253123 0.439091,0.640556 0.09815,0.382267 0.09815,1.281111 v 4.804168 h -2.086971 v -4.747344 q 0,-0.707711 -0.04649,-0.862684 -0.04649,-0.154973 -0.258289,-0.154973 -0.222128,0 -0.278952,0.180802 -0.05682,0.175636 -0.05682,0.950502 v 4.633697 h -2.086972 v -6.854979 z m 8.022443,2.588052 h -1.968159 v -0.790363 q 0,-0.413262 -0.06715,-0.557904 -0.06715,-0.149807 -0.247957,-0.149807 -0.180802,0 -0.242791,0.129144 -0.06199,0.129145 -0.06199,0.578567 v 3.233773 q 0,0.366769 0.09298,0.552737 0.09298,0.180802 0.273786,0.180802 0.211796,0 0.284117,-0.191133 0.07749,-0.191134 0.07749,-0.723208 v -0.816192 h 1.859677 q -0.0052,0.821357 -0.06199,1.234619 -0.05166,0.408096 -0.346107,0.842021 -0.289283,0.428759 -0.759368,0.650887 -0.470085,0.216963 -1.162299,0.216963 -0.883347,0 -1.399924,-0.299615 -0.516577,-0.304781 -0.733539,-0.847187 -0.211797,-0.547572 -0.211797,-1.549731 v -1.947496 q 0,-0.873016 0.175636,-1.317272 0.175637,-0.444256 0.749037,-0.790363 0.573401,-0.351272 1.394759,-0.351272 0.816191,0 1.394758,0.346106 0.578566,0.346107 0.7697,0.873016 0.191133,0.526908 0.191133,1.492908 z m 2.820512,-3.502393 v 1.079646 h 0.56307 v 1.084812 h -0.56307 v 3.667698 q 0,0.676716 0.06715,0.754202 0.07232,0.07749 0.583733,0.07749 v 1.105475 h -0.842021 q -0.712877,0 -1.017657,-0.05682 -0.304781,-0.06199 -0.53724,-0.273786 -0.23246,-0.216963 -0.289284,-0.490749 -0.05682,-0.278951 -0.05682,-1.301774 v -3.48173 h -0.449422 v -1.084812 h 0.449422 v -1.079646 z"
       id="text2"
       aria-label="Extinct" />
    <path
       d="m 35.295273,26.961131 v -5.148926 h 3.432618 v 0.171631 H 35.55272 l -0.08582,0.08582 v 2.145385 l 0.08925,0.08582 h 2.3994 v 0.171631 h -2.402832 l -0.08582,0.08582 v 2.145386 l 0.08582,0.08582 h 3.175171 v 0.171631 z m 5.893804,-2.574463 -1.603032,-2.488647 v -0.08582 h 0.171631 l 1.544678,2.3994 1.544677,-2.3994 h 0.171631 v 0.08582 l -1.603032,2.488647 1.603032,2.488648 v 0.08582 h -0.171631 l -1.544677,-2.399404 -1.544678,2.399399 h -0.171631 v -0.08582 z m 2.687739,-2.402832 v -0.171631 h 3.432618 v 0.171631 h -1.544678 l -0.08582,0.08582 v 4.891479 h -0.17163 v -4.891479 l -0.08582,-0.08582 z m 4.290772,0 v -0.171631 h 3.432617 v 0.171631 h -1.544678 l -0.08581,0.08582 v 4.634033 l 0.08581,0.08582 h 1.544678 v 0.171631 h -3.432617 v -0.171631 h 1.544678 l 0.08582,-0.08582 v -4.634033 l -0.08582,-0.08582 z m 4.462402,0.08582 v 4.891479 h -0.171631 v -5.148926 h 0.257447 l 3.00354,4.89148 v -4.89148 h 0.171631 v 5.148926 H 55.63353 Z m 7.551758,4.719848 v 0.171631 h -3.432617 v -5.148926 h 3.432617 v 0.171631 h -3.178603 l -0.08582,0.08582 v 4.634033 l 0.08925,0.08582 z m 0.858154,-4.805664 v -0.171631 h 3.432618 v 0.171631 h -1.544678 l -0.08582,0.08582 v 4.891479 h -0.17163 V 22.06966 l -0.08582,-0.08582 z"
       id="text9"
       style="font-size:7.03px;font-family:Hyperspace;-inkscape-font-specification:Hyperspace;fill:none;stroke:#f86185;stroke-width:0.105833;stroke-linecap:round;stroke-linejoin:round;stroke-miterlimit:11.2;stroke-dasharray:none"
       aria-label="Extinct" />
  </g>
</svg>
