<?xml version="1.0" encoding="utf-8"?>
<!-- Generator: Adobe Illustrator 27.7.0, SVG Export Plug-In . SVG Version: 6.00 Build 0)  -->
<svg version="1.1" id="Layer_1" xmlns="http://www.w3.org/2000/svg" xmlns:xlink="http://www.w3.org/1999/xlink" x="0px" y="0px"
	 viewBox="0 0 128 128" style="enable-background:new 0 0 128 128;" xml:space="preserve">
<style type="text/css">
	.st0{display:none;fill:none;stroke:#000000;stroke-miterlimit:10;}
	.st1{display:none;}
	.st2{display:inline;fill:none;stroke:#000000;stroke-miterlimit:10;}
	.st3{display:none;fill:#FFFFFF;stroke:#000000;stroke-miterlimit:10;}
	.st4{fill:#FFFFFF;stroke:#C8C8C8;stroke-miterlimit:10;}
	.st5{fill:#FFFFFF;stroke:#B0B0B0;stroke-miterlimit:10;}
	.st6{display:none;fill:#FFFFFF;stroke:#7E7E7E;stroke-miterlimit:10;}
	.st7{fill:#FFFFFF;stroke:#000000;stroke-miterlimit:10;}
	.st8{fill:#FFFFFF;stroke:#010101;}
	.st9{display:inline;fill:#FFFFFF;}
	.st10{display:none;fill:#FFFFFF;stroke:#000000;stroke-linejoin:bevel;stroke-miterlimit:10;}
	.st11{display:none;fill:#FFFFFF;stroke:#EE1C4E;stroke-linejoin:bevel;stroke-miterlimit:10;}
	.st12{fill:#FFFFFF;stroke:#0A6034;stroke-linejoin:bevel;stroke-miterlimit:10;}
	.st13{display:none;fill:#FFFFFF;stroke:#4254A5;stroke-linejoin:bevel;stroke-miterlimit:10;}
	.st14{display:none;fill:none;stroke:#6B0F2A;stroke-linejoin:round;stroke-miterlimit:10;}
	.st15{display:none;fill:#FFFFFF;stroke:#000000;stroke-linejoin:round;stroke-miterlimit:10;}
	.st16{fill:none;stroke:#000000;stroke-miterlimit:10;}
	.st17{fill:none;stroke:#000000;stroke-linejoin:round;stroke-miterlimit:10;}
</style>
<polygon class="st0" points="42.5,59.4 45.9,57.3 46.3,60.3 47.8,64.4 50.4,70.5 35.6,70.5 37.3,65.5 37.5,61.5 39,62.3 39.4,58.1 
	"/>
<polygon class="st0" points="40.5,30.7 43.8,34.8 49,35.6 47,40.5 49,45.4 43.8,46.2 40.5,50.3 37.2,46.2 32,45.4 34,40.5 32,35.6 
	37.2,34.8 "/>
<g class="st1">
	<polygon class="st2" points="141.2,-11.3 139.4,-12.3 137.4,-12.6 135.7,-11.6 133.5,-11.3 133.3,-9.2 132.4,-7.4 132.8,-5.5 
		134,-3.9 135.8,-3.3 137.5,-2 139.6,-2.7 140.7,-4.3 142.2,-5.6 142.8,-7.6 141.8,-9.4 	"/>
</g>
<polygon class="st3" points="144.4,-13.3 143.8,-8.3 147.4,-6.2 144.2,-3 141.1,0.2 139.3,0.2 137.6,0.3 135.8,0.3 134,0.3 
	131.5,-2.8 127.6,-7.3 131.1,-8.1 130.3,-13 137.5,-7.5 "/>
<polygon class="st4" points="58.5,30.5 54.5,31.5 60.5,24.5 64.5,24.5 66.5,14.5 70.5,14.5 70.5,17.5 68.5,17.5 67.5,25.5 67,33.6 
	65.6,33.3 64.5,30.5 61.5,30.5 60.9,33.5 59.5,33.7 "/>
<polygon class="st0" points="59.5,19.5 58.8,21.5 57.6,26.2 57.4,32.2 59.5,37.5 64.5,36.4 63.2,31.8 63.4,26.6 64.1,22.3 
	64.5,20.5 63.2,20.2 62,20 60.8,19.8 "/>
<polygon class="st5" points="58.5,30.5 54.5,30.5 60.5,24.5 64.5,24.5 68.5,18.5 72.5,18.5 72.5,21.5 70.5,21.5 67.5,25.5 70,32.6 
	68.6,33.3 64.5,30.5 61.5,30.5 58.9,33.5 57.5,33.7 "/>
<polygon class="st6" points="58.5,30.5 54.5,30.5 60.5,24.5 64.5,24.5 68.5,18.5 72.5,18.5 72.5,21.5 70.5,21.5 67.5,25.5 66,33.6 
	63.6,33.3 64.5,30.5 61.5,30.5 61.9,33.5 59.5,33.7 "/>
<g>
	<polygon class="st7" points="92.5,63.5 90.2,52.2 84,43 74.8,36.8 63.5,34.5 52.2,36.8 43,43 36.8,52.2 34.5,63.5 36.8,74.8 43,84 
		52.2,90.2 63.5,92.5 74.8,90.2 84,84 90.2,74.8 	"/>
	<polygon class="st8" points="59.7,41.2 58.9,43.6 59.7,43.8 62.7,43.7 62.3,42.3 65.2,42.5 68.9,44.7 66.9,46.1 65.3,51.4 64,53 
		62.4,54.2 60.2,54.6 58.2,55.7 59.3,58.2 61.4,59.1 65.1,64 73.1,63.3 83.7,69.8 80.6,78.5 67.6,90.4 66.9,90.5 66.5,89.1 
		69.7,79.2 69.2,76.8 65.9,72.1 63.5,66.6 57.6,61.8 53,59.3 47.6,51.2 47.4,49.8 48.4,47 48.5,43.6 48,43 47.2,42.7 45.1,43.2 
		47.4,41 50.5,40 51.6,40.5 59,40.6 	"/>
</g>
<g class="st1">
	<polygon class="st9" points="27.3,25.4 30.6,25 31.1,21.7 30.4,18.9 27.7,18.9 24.7,18.3 25.3,21.4 25.7,23.1 	"/>
	<polygon class="st2" points="27.3,25.4 30.6,25 31.1,21.7 30.4,18.9 27.7,18.9 24.7,18.3 25.3,21.4 25.7,23.1 	"/>
</g>
<g class="st1">
	<polygon class="st9" points="12.6,27.8 24.8,26.2 26.6,14.3 24.2,4 14.1,4.1 3.2,1.9 5.4,13 6.9,19.4 	"/>
	<polygon class="st2" points="12.6,27.8 24.8,26.2 26.6,14.3 24.2,4 14.1,4.1 3.2,1.9 5.4,13 6.9,19.4 	"/>
</g>
<polygon class="st10" points="67.5,13.5 64.5,17.5 63.5,21.5 61.5,22.5 57.5,26.5 55,26.4 52.3,28.1 58.5,29.5 58.9,33.5 60.3,33.5 
	62,30.3 63.7,33.5 65.1,33.5 64.2,30.8 65.6,29 64.5,28.1 66.5,26.5 68.5,26.5 66.5,24.1 66.7,23.1 68.5,23.5 70.5,21.5 66.5,21.5 
	67.5,17.5 69.2,19.9 70.5,17.5 73.5,19.5 73.5,14.5 "/>
<polygon class="st11" points="93.5,9.5 89.5,14.5 89.5,18.5 87.5,19.5 85.5,21.5 83,21.4 80.3,23.1 86.5,24.5 85.9,27.5 87.3,27.5 
	90,25.3 90.7,27.5 93.5,27.5 92.5,23.1 93.5,21.5 96.5,19.5 92.5,19.5 93.5,14.5 95.2,16.9 96.5,14.5 100.5,15.5 100.5,11.5 "/>
<polygon class="st12" points="94.5,11.5 90.5,16.5 89.5,18.5 87.5,19.5 85.5,21.5 83,21.4 79.5,21.5 86.5,24.5 83.9,27.5 85.3,27.5 
	90,25.3 93.7,27.5 96.5,27.5 92.5,23.1 93.5,22.5 98.5,21.5 92.5,19.5 94.5,16.5 96.2,18.9 97.5,16.5 101.5,17.5 101.5,13.5 "/>
<polygon class="st13" points="94.5,11.5 90.5,16.5 89.5,18.5 87.5,19.5 85.5,21.5 83,21.4 79.5,21.5 86.5,24.5 87.9,27.5 89.3,27.5 
	90,25.3 88.7,27.5 91.5,27.5 92.5,23.1 93.5,22.5 98.5,21.5 92.5,19.5 94.5,16.5 96.2,18.9 97.5,16.5 101.5,17.5 101.5,13.5 "/>
<polygon class="st0" points="64.5,20.5 72.5,23.5 70.5,16.5 63.5,15.5 62.5,17.5 61,13.9 58.6,12.7 51.4,15.9 51,18.1 52.5,20.5 
	54.5,18.5 "/>
<polygon class="st3" points="22.1,20.3 22.5,18.5 30.5,21.5 28.5,14.5 21.5,13.5 20.5,15.5 19,11.9 16.6,10.7 9.4,13.9 9,16.1 
	10.5,18.5 12.5,16.5 17.5,17.5 16.8,19.5 15.6,24.2 15.4,30.2 17.5,35.5 22.5,34.4 21.2,29.8 21.4,24.6 "/>
<polygon class="st7" points="21.1,55.3 20.5,53.5 29.5,52.5 27.5,48.5 20.5,47.5 19.5,49.5 18,45.9 15.6,44.7 8.4,47.9 8,50.1 
	9.5,52.5 11.5,50.5 17.5,52.5 15.8,54.5 14.6,58.2 14.4,64.2 16.5,69.5 21.5,68.4 20.2,63.8 20.4,58.6 "/>
<g class="st1">
	<polygon class="st9" points="19.5,27.5 16.5,28.5 15.3,31.5 17.3,33.7 19.5,34.8 21.7,33.7 22.3,31.5 21.3,29.7 	"/>
	<polygon class="st2" points="19.5,27.5 16.5,28.5 15.3,31.5 17.3,33.7 19.5,34.8 21.7,33.7 22.3,31.5 21.3,29.7 	"/>
</g>
<polygon class="st0" points="39.4,29.2 40.6,24.2 41.2,19.1 38.8,14.5 37,9.7 33.7,5.6 29.4,2.4 24.1,1 18.9,2.7 13.5,2.5 9.7,6.3 
	5.5,9.4 2.2,13.6 2.1,19 1,23.1 2.2,29.4 4.6,34.3 9.2,37.3 13.7,39.9 18.6,41.9 23.7,40.3 28.5,39.1 33.3,37.3 37.2,33.9 "/>
<polygon class="st14" points="50.5,11.5 58.8,6.7 63.9,8.5 65.5,7.5 64.5,4.5 67.5,5.5 69.5,7.5 72.5,9.5 67.5,9.5 65.9,10.7 
	63.5,10.5 67.5,13.5 65.5,13.5 62,18.4 59.6,14 60.4,12 58.4,9.7 57.5,10.5 55.5,10.1 "/>
<polygon class="st0" points="70,-2.5 71.7,-4.4 73.8,-5.6 77.6,-6.3 81.3,-5 82.7,-4.5 83.5,-5.6 82.2,-8.7 83.9,-7.4 85.7,-6.6 
	88,-4.4 84.1,-5 82.9,-3.3 81.6,-3.9 83.3,-1.6 84.1,-1.2 83.2,-1.3 79,4.4 76.6,0 77.4,-2 75.4,-4.3 73.4,-3.8 72.2,-2 71.8,-1.8 
	72.5,-3.9 70.4,-2.7 "/>
<polygon class="st15" points="50.5,11.5 58.8,6.7 59.5,0.5 63.9,8.5 65.5,7.5 64.5,4.5 67.5,5.5 69.5,7.5 72.5,9.5 67.5,9.5 
	65.9,10.7 63.5,10.5 60.4,12 58.4,9.7 57.5,10.5 55.5,10.1 "/>
<path class="st14" d="M80.3,9.4C80,9.1,79.7,9,79.5,9S79,9.1,78.7,9.4c-0.8,0.8-3.9,7.4,0.8,7.4S81.1,10.1,80.3,9.4z"/>
<path class="st14" d="M99.3-8.6C99-8.9,98.7-9,98.5-9S98-8.9,97.7-8.6c-0.8,0.8-3.9,7.4,0.8,7.4S100.1-7.9,99.3-8.6z"/>
<polygon class="st14" points="66,8.2 65.6,6.2 64.5,5 63.4,6.2 63,8.2 63.4,9.5 64.5,10 65.6,9.5 "/>
<polygon class="st14" points="57.5,20.5 58.5,19.5 58.5,16.5 56.5,14.5 54.5,16.5 54.5,19.5 55.5,20.5 "/>
<g class="st1">
	<line class="st2" x1="57.5" y1="1" x2="57.5" y2="5"/>
	<line class="st2" x1="59.5" y1="1" x2="59.5" y2="5"/>
	<line class="st2" x1="61.5" y1="1" x2="61.5" y2="5"/>
	<line class="st2" x1="58" y1="4.5" x2="62" y2="4.5"/>
</g>
<polygon class="st16" points="65,7 67,9 69,7 71,9 73.1,7 73.1,13 65,13 "/>
<image style="display:none;overflow:visible;enable-background:new    ;" width="620" height="320" xlink:href="585E3D71.jpg"  transform="matrix(6.250000e-02 0 0 6.250000e-02 51 38)">
</image>
<polygon class="st17" points="-27.5,53.5 -37,51 -38.5,46.5 -43.5,47.5 -46.4,46.5 -48.4,51 -53,49 -60.5,51.5 -53.5,50.5 -52.9,51 
	-59.5,52.5 -51.9,51.8 -48.9,52.9 -48.5,54.5 -45.6,54.1 -43.5,54.5 -44.5,56.5 -43.5,56.5 -41.5,54.5 -40.5,56.5 -39.5,56.5 
	-38.6,53.8 "/>
</svg>
