<svg viewBox="0,0,1152,1152" fill="none" stroke="currentColor" xmlns="http://www.w3.org/2000/svg" xmlns:xlink="http://www.w3.org/1999/xlink"><path d="M576.0000068604944,1036.4L559.9322797487705,1036.1195370400264L543.8841275041266,1035.2784893001508L527.8751035030492,1033.877881467491L511.92471227528137,1031.919419966944L496.0523869155646,1029.40549088217L480.27746540740554,1026.3391570485178L464.6191670627212,1022.7241543214313L449.09656910606907,1018.5648870248851L433.72858343198624,1013.8664225853938L418.53393356375983,1008.6344853581342L403.5311318416978,1002.8754496526992L388.73845686869413,996.5963319669847L374.1739312405664,989.804782438667L359.85529958829966,982.5090755246878L345.8000069589457,974.7180999201047L332.0251775615217,966.4413477285839L318.5475939037985,957.688902897735L305.3836763454005,948.4714289333735L292.5494630921266,938.800155907682L280.06059065586686,928.6868667770968L267.93227480392153,918.1438830265909L256.17929202093234,907.184049657842L244.81596150601223,895.8207195395771L233.85612772700665,884.0677371391585L223.31314355314242,871.9394216552329L213.19985398661316,859.4505495719936L203.52858051292287,846.616336656311L194.3111060890538,833.4524194196638L185.55866078774824,819.9748360674587L177.28190811539503,806.200006958948L169.49093202018946,792.1447146015505L162.19522460639553,777.8260832039521L155.4036745696796,763.2615578128944L149.12455636760308,748.4688830590734L143.36552013847142,733.4660815380398L138.1335823808181,718.2714318524424L133.43511740488265,702.903446342367L129.27584956649525,687.3808485309007L125.66084629283085,671.7225503124041L122.59451190852991,655.9476289112803L120.08058226970695,640.0753036393162L118.12212021238582,624.1249124799116L116.72151182090533,608.1158885277246L115.88046352084336,592.06773631244L115.60000000000002,576.0000080355038L115.88046295997333,559.9322797487775L116.72151069984847,543.8841275041348L118.12211853250807,527.8751035030573L120.08058003305496,511.9247122752894L122.5945091178287,496.0523869155726L125.6608429514805,480.2774654074134L129.27584567856667,464.61916706272916L133.4351129751126,449.09656910607697L138.13357741460362,433.728583431994L143.36551464186306,418.53393356376745L149.1245503472977,403.53113184170536L155.4036680330119,388.7384568687016L162.19521756132957,374.17393124057384L169.49092447530836,359.8552995883069L177.28190007989122,345.80000695895285L185.55865227141175,332.0251775615286L194.31109710226048,318.5475939038053L203.52857106662168,305.3836763454072L213.19984409231301,292.54946309213307L223.313133222898,280.0605906558731L233.85611697340363,267.9322748039276L244.81595034215235,256.17929202093825L256.179280460417,244.8159615060179L267.9322628608354,233.85612772701216L280.0605783447608,223.31314355314777L292.54945042799983,213.19985398661822L305.38366334368226,203.52858051292776L318.5475805803294,194.3111060890584L332.02516393253427,185.55866078775256L345.7999930410449,177.28190811539912L359.8552853984422,169.4909320201932L374.17391679604066,162.1952246063991L388.7384421870982,155.40367456968283L403.53111694091905,149.1245563676061L418.5339184619525,143.36552013847415L433.72856814754977,138.1335823808206L449.09655365762524,133.43511740488486L464.61915146909126,129.27584956649724L480.27744968758805,125.66084629283256L496.05237108871165,122.59451190853133L511.92469636067597,120.08058226970803L527.8750875200807,118.12212021238662L543.8841114722671,116.7215118209059L559.932263687552,115.8804635208437L575.9999931394985,115.60000000000002L592.0677202512134,115.88046295997299L608.1158724958566,116.72151069984795L624.1248964969342,118.12211853250722L640.0752877247023,120.08058003305382L655.9476130844192,122.59450911782727L671.7225345925785,125.6608429514788L687.3808329372628,129.27584567856468L702.903430893915,133.43511297511031L718.2714165679982,138.13357741460106L733.4660664362248,143.36551464186022L748.468868158287,149.1245503472946L763.2615431312909,155.4036680330085L777.8260687594188,162.19521756132593L792.1447004116858,169.4909244753045L806.1999930410402,177.28190007988712L819.9748224384645,185.55865227140737L833.452406096188,194.31109710225587L846.6163236545862,203.52857106661685L859.4505369078604,213.19984409230796L871.9394093441206,223.31313322289265L884.0677251960665,233.8561169733983L895.8207079790561,244.8159503421469L907.1840384939768,256.1792804604116L918.1438722729829,267.9322628608299L928.6868564468476,280.0605783447553L938.8001460133775,292.5494504279944L948.4714194870683,305.38366334367686L957.6888939109378,318.54758058032394L966.441339212244,332.0251639325289L974.7180918845978,345.79999304103956L982.5090679798038,359.85528539843693L989.8047753935983,374.1739167960354L996.5963254303149,388.738442187093L1002.8754436323918,403.53111694091405L1008.634479861524,418.5339184619477L1013.8664176191778,433.72856814754505L1018.5648825951138,449.0965536576206L1022.7241504335017,464.6191514690869L1026.3391537071666,480.2774496875837L1029.405488091468,496.0523710887076L1031.9194177302913,511.9246963606718L1033.877879787613,527.8750875200766L1035.278488179094,543.8841114722637L1036.1195364791563,559.9322636875485L1036.4,575.9999919644849L1036.1195370400271,592.0677202512114L1035.2784893001522,608.1158724958543L1033.8778814674931,624.124896496932L1031.9194199669464,640.0752877247003L1029.4054908821731,655.9476130844173L1026.3391570485217,671.7225345925767L1022.7241543214358,687.3808329372612L1018.5648870248901,702.9034308939138L1013.8664225853993,718.271416567997L1008.6344853581401,733.4660664362239L1002.8754496527056,748.4688681582863L996.5963319669917,763.2615431312904L989.8047824386742,777.8260687594184L982.5090755246956,792.1447004116857L974.7180999201129,806.19999304104L966.4413477285925,819.9748224384646L957.6889028977439,833.4524060961883L948.4714289333828,846.6163236545867L938.8001559076915,859.4505369078611L928.6868667771066,871.9394093441213L918.1438830266011,884.0677251960672L907.1840496578525,895.8207079790568L895.8207195395878,907.1840384939776L884.0677371391694,918.1438722729836L871.9394216552439,928.6868564468482L859.4505495720049,938.800146013378L846.6163366563223,948.4714194870689L833.4524194196753,957.6888939109385L819.9748360674703,966.4413392122445L806.2000069589596,974.7180918845984L792.1447146015622,982.5090679798044L777.8260832039637,989.8047753935988L763.261557812906,996.5963254303153L748.4688830590849,1002.8754436323923L733.4660815380514,1008.6344798615244L718.2714318524538,1013.8664176191783L702.9034463423783,1018.5648825951141L687.380848530912,1022.7241504335019L671.7225503124154,1026.3391537071666L655.9476289112913,1029.4054880914682L640.075303639327,1031.9194177302916L624.1249124799222,1033.877879787613L608.115888527735,1035.278488179094L592.0677363124494,1036.1195364791563L576.0000068605024,1036.4Z"/><path d="M581.4460283761839,1035.4547838910114L584.5854368535145,1035.3688791519942L586.0959719408567,1035.15944538442L585.9251481104308,1035.5407381934351L583.0340847250385,1035.6614448800806L579.5667978162847,1035.6459273245405L578.3913245599371,1035.5076579693923ZM573.4097840493616,1035.809858082842L578.0676410990121,1035.8291682322674L574.074899886281,1035.9134168447479L570.274446378032,1035.8958076363365L570.437347486849,1035.783308721066ZM624.4151625025603,1029.7042675642247L627.3038427610085,1029.4525293757752L629.7446248238347,1028.9738635530978L632.0354461500525,1029.2532097704936L630.0736175975488,1029.4570278014298L621.2958737238143,1030.7305027077705L618.4967346188657,1030.8930404536359L616.3160680948591,1030.733135594989L617.4135600699839,1030.3978878413718ZM700.2648889835217,1014.3807267311429L699.6353375223459,1015.0719066105135L697.0299308359935,1016.5395689212082L691.1592965829162,1018.2424688537776L688.1919143210479,1018.8884754320175L689.9573909472751,1018.0743726437588L684.192094253964,1019.639228854686L682.7769171636616,1019.6213589149768L683.1439283316952,1019.0722291465802L688.1882231500133,1017.3665260444434L690.9795810056975,1016.7972248397647L692.5211955944598,1015.8093117540734L694.4653110579624,1013.7512283051857L696.7398005017654,1012.5352171035383L699.5057611267011,1011.6636614021387L700.2765153483251,1012.0510932350369ZM562.0258927290439,1036.187879377521L562.3626463570505,1036.1840433442187L565.3212091066729,1036.2469482572922L566.7647543950781,1036.2330308165845L569.8057652258071,1036.2644884045537L573.2083432358797,1036.1740857809295L578.902730619514,1036.0805037521595L588.6127667039451,1035.5834503165604L590.8008742644953,1035.1847062588618L594.0533219724056,1035.0743329998147L595.6361112158311,1034.8394150076392L596.4140713055097,1034.5355818405442L603.2504465233175,1034.581101182446L604.2208267009783,1034.3071374084443L607.7773234366023,1034.1935978288955L610.749353648474,1033.9613119965927L613.7900222802107,1033.7996973320685L618.3303858392258,1033.1391739374033L621.3915676054856,1032.7944669349747L627.4516352320809,1032.2193992123387L627.6305433389635,1031.9127498234939L623.861536471454,1031.9063797861677L620.9775488997942,1032.2155256142714L618.8934461082455,1032.1768684759581L614.9063037387009,1031.6580210136303L620.0888835744727,1031.1976627152706L622.9093377858482,1030.7692879418823L628.7583020481311,1030.4026704481862L630.3235029585105,1030.503036700898L633.4064660497374,1030.1114637334156L641.5813617093839,1028.4455717913797L644.1186053260983,1028.2634087817382L647.0707833458032,1027.7063640267413L648.5630821158602,1026.6886587086187L650.700925760388,1026.7894369396931L653.4333123279969,1026.4909979758995L656.2836824933172,1025.8911932702226L658.1965173518464,1025.9253572727105L663.8271546066262,1025.0275590815081L666.383380319392,1024.7339215195339L669.3753251737355,1023.4759508840622L671.3714102843778,1023.4547448904862L674.4999948480977,1022.7323308688776L677.6604193725416,1022.568487055144L680.6340826506031,1021.855372470385L685.7562060795007,1020.3252937435274L694.9883686898236,1017.8635407005787L699.5756697642954,1016.2590285898639L701.7019321231776,1014.8459096147842L701.880103313035,1012.8993020831865L703.5257266724581,1011.4033833091419L707.3915897641307,1009.2940455745371L708.6198860376977,1008.3743661200509L709.3850736220413,1006.8000737365016L711.6919935926711,1005.4487775510493L716.5743601016034,1003.0374788256858L722.3441389665722,1000.4420639333812L724.51333873741,999.0387200793223L729.3485001856673,996.7266451066782L732.4398257433439,995.8120900442871L735.1596381345213,994.4420440365286L740.6799289381069,992.3138433836244L746.240235927909,989.5708241436262L748.9999078110811,988.5551595384547L750.0452832047666,988.8288895400417L747.9386396819713,990.129945970076L742.1000928683665,992.8035020607964L740.2918860165772,992.9630174208733L737.5154458844797,993.9089616262411L729.7392205279607,997.5544993885462L727.6154579965931,999.6008059934388L728.1296564316331,1000.0974923565442L722.6729337367631,1002.0696971346781L715.1657357632997,1005.8417848978386L713.8935283918764,1006.7758379714185L714.6076471256148,1007.7503024150569L717.3798533301813,1007.868854354135L716.5818531879988,1009.6404902762221L716.4042986553734,1010.5397421900075L714.0537833004826,1012.1573164847058L712.0577197970686,1013.763895158819L710.1691265641974,1014.6919026833624L705.7304404520768,1016.3931173884387L702.7882910877556,1017.2408831305534L698.9202556368969,1018.6480992511938L695.1843826725449,1019.7833066558069L686.7211498188923,1022.1019202157718L684.4800578438286,1022.8080734717406L678.5461737568107,1024.127610551399L672.6101419181084,1025.4186610861025L672.7254348054785,1025.5650723083127L675.1299692781694,1025.129596052917L676.621256681948,1024.906941026219L677.0998784320972,1024.9095941969688L674.846722151151,1025.4763488165418L672.2433933988717,1026.0022722788221L669.6893114325394,1026.5909317225414L668.6945264742579,1026.929465014917L670.0121903836501,1026.6871377442858L669.8511754585137,1026.7327605718183L669.9650883919694,1026.709132549463L669.96463768279,1026.709226514326L654.1778717998299,1029.7139851942513L638.2958582224593,1032.1659632724995L622.337946737786,1034.06217339148L606.3235796028266,1035.4003053112515L590.2722678571099,1036.1787287241937L574.203567551487,1036.3964952412844ZM731.86502880275,965.3798394866942L736.6321950996839,966.3609839236278L742.1881247141769,965.8643545250413L739.457876675542,968.2533363307158L735.3946044298061,969.4121867972088L733.7878349909225,968.5979005473516L731.7815013063457,970.4609133080028L727.7220625824875,972.4711883312737L723.2899294536096,973.1297928638419L720.5512440286184,972.7471193341152L716.1891905143233,973.2449262831934L707.1177230431508,971.4191539585961L701.5642513773212,968.520804906044L705.2539252889453,968.5051211060911L711.1506882269808,969.658298885792L716.7688321043516,969.6878266759702L719.5440960227402,967.4085767484227L721.7318975609325,964.394868393205L726.3874891900028,961.7779608424173L729.4941859785349,961.4966643640755ZM776.9724778993517,943.6175323923653L779.4267390925293,944.6744433755478L777.3748684099036,946.5666193104873L770.9791306228603,949.4302440434458L769.7768284619201,948.4337589069194L765.1987182291327,951.3446333180593L763.9082383417804,949.9872481458312L770.3336309614962,945.9910949924054L773.5197949917806,946.0996779650935ZM763.3675960799688,533.695029930225L757.7561508630527,536.0759395938979L756.869984084665,529.9969335123573L762.1394365605306,527.8304937513396ZM713.5013150094413,479.24602125063615L712.2851819600025,481.61272716631487L702.9512485036945,484.1101607949753L702.3006588609938,479.56797817825753L711.7975192027452,478.0265685929417ZM632.7501084885612,500.4128754368896L630.8080723782664,502.17684854845913L621.4837842098976,499.8208201833689L624.9633437215106,496.6958269440892L631.8539603546745,496.2804563002854L637.9034158323832,499.18769114097387ZM660.4959097752542,478.2060738355766L667.0379810310021,478.0261017023852L673.1463413032856,475.299113448499L685.5963247896448,477.0491483042854L693.4999105458891,480.9156541591782L691.7421224543415,484.6498665554844L682.2682075891742,485.04035153248367L675.0505952147602,487.8635456377499L673.5500803013778,493.79936357455205L670.4421996005524,490.8499342858233L657.4286984603548,492.32365861718966L654.3717673844925,494.5055748287391L649.8792733090745,490.32587206492843L662.5030281947659,489.34763728135L664.6697720953158,487.06186124888364L659.7957744814498,481.5071151533338L654.9418623408276,481.3093370008988ZM153.19684922963205,527.557262588996L152.05932301767723,527.4624672469121L152.40749975876327,522.2353702094169L153.8587853599202,518.126335126855L155.77060471205158,524.7167253574378ZM603.8523255665056,466.7835450878829L607.3455055575574,469.01185766918957L613.9121717933725,466.79707883907656L629.4483030893443,474.0824707103672L636.492861467905,474.1312253825087L636.5071401163602,476.4087616216698L641.9191579291008,475.5871508635243L648.1686807865393,477.5560534335094L647.7646029700363,479.5341548330871L638.3854522851844,482.9618323209544L622.9305529209304,486.32551975835366L626.8257191858881,481.027203306787L618.5733100166452,480.0842301971642L612.8153606367175,474.3467117271179L608.7717729337259,475.4700695013955L598.9984392785855,473.5614052182696L589.2554893702118,474.21578914834015L588.7271131301567,470.7605946003342L581.5023594553567,471.72922109407455L573.3745648672271,479.4495124080931L566.6404534686883,480.80489008645696L571.0914028367208,474.6409892050141L577.4885896396374,470.12239615703646L584.4036639551399,467.1870179226548L596.4895445022003,465.51774209330904ZM617.4634244957631,456.1093653174338L615.8072693184992,456.8397253509105L609.7797843568026,451.1875083871496L610.1609645141394,446.0803218309556L612.3667215408547,445.93939530810525ZM610.2443476681796,435.2487282899044L602.9149522868879,437.99744053304795L601.7743402560683,435.3148750814738L609.5632388006505,433.3532285486257ZM615.9399668743084,433.99782655115234L616.0820699783335,439.5704982554952L613.6755626115171,434.9444847182815L609.5922762019459,431.7799956265086ZM862.0827015907942,215.9127120908273L866.0191098117141,218.82555721279812L874.1977403072559,225.5678596552151L876.4635026280147,227.7599380690109L875.1277694949249,226.78094201819926L867.7879911195049,220.76104625339343L864.395288810894,218.16273102830257ZM855.9235445326353,211.0685103094121L861.0047463772473,215.06804053274936L860.0518240428519,214.50850797628982L855.9662463312281,211.50047936363825L850.6095314784635,207.1902077288973ZM645.3723944231762,280.5633517162192L653.8970127337311,279.1009727959354L651.2504822460696,282.9879162526645L643.5013807924622,282.09294123008556L641.1735858553088,280.4264645860877L642.0386266555793,278.13877355324666ZM645.5893661663868,263.58403823922237L636.2294506750741,264.0590047486404L630.3004639446373,262.5053666011444L638.606262310072,261.4855493150638ZM340.72220640935586,315.39117101410113L338.22666150230356,316.40418663278075L332.5831589574458,313.6566184112782L329.84211128599,307.342828571614L326.34924706927586,306.26272771195534L327.580644706448,301.26484754817716L336.29142541849535,304.0616140823964L337.3764989479125,309.2752400988739L340.4026508018244,311.81694242780014ZM664.9035704251216,248.08161152947645L665.5824614884076,253.57835788663266L667.0551914484815,250.96659808901262L670.8337365390679,251.28574492786493L670.7387331190943,253.5995711427924L675.7335571259739,253.9785481678221L676.7018941590359,252.08891757952318L682.278709210879,252.49925867718997L684.0663215044301,256.86576483619L686.355961393465,255.04533804631353L693.2068477058891,260.7857398131578L695.0977271678623,266.24714956783794L689.4880854876776,266.8617123254939L687.0414095415804,261.99640780089885L685.2815056217885,261.65028069264343L683.6267530796972,268.0213642748366L680.7451190941542,268.5994546011269L682.0722321829857,265.03931385262996L676.7314239457429,264.9112136059675L662.9218472821625,268.9138749581887L661.0947065121609,267.42862762877223L662.6640295971813,264.6626871857763L659.6359620014929,263.68816297705155L661.1884349439176,259.295710242568L659.5220860154147,249.39237035681663L659.8897193499741,245.6384736917039L664.2415942637606,242.47982485544634ZM323.3082621763425,280.7665659314209L326.78460178138533,280.28172583569057L321.66754073804157,287.33425094529645L321.8659263464915,292.3890695437456L320.46823341651213,292.38316177288084L319.8379231621414,284.65992509851765L322.2464203043107,279.9647616151888ZM787.0403051996966,183.2821212493219L789.681587882729,187.3787570560575L787.2499655995387,188.2265066691L780.7605733003873,183.30425264297236L773.0902646597964,179.95433893877714L766.0025082670363,173.3772545156936L766.3296957730776,172.46034675414836L771.4970890180615,173.66581177685953L776.0696853163057,176.6512106254047L781.2703890535399,179.1430181443249ZM762.0794203766942,155.74497529662779L768.3727614132976,158.6719114792498L765.0828837208715,157.5891250370562L762.1639914710711,156.38753339550829L758.7102567502944,154.42051654033781ZM285.4472913176584,258.1623307967413L281.665370410283,259.97197014557014L284.40627689857683,255.5203444707367L289.5932167863418,253.1912609085706L289.52749920520284,255.7493645876836ZM742.9402390788705,157.97921052002528L750.5133380289049,162.18217112818581L750.3586996096413,160.03901518812103L756.2921243821058,162.81659110560457L762.5374074139617,166.50946080340714L763.3951548637733,165.8443785806021L773.0439887190745,169.37451310571356L774.3744774501274,169.3448994759476L785.5743456068504,174.01598534281368L787.0599011460024,173.65896942164738L791.6088185888211,176.11862113137374L793.6434570909321,177.6650916449479L797.3235393726981,179.26646361264358L800.9123922701896,182.1056610437313L800.5648868567545,183.30273116366925L801.9127931909752,186.0131223568706L800.3393839193018,185.6828762181995L803.2707781127117,188.20107784158114L801.9680120517025,188.65881855343952L804.1725168051578,190.92617786343402L802.4277733808959,190.6466738464543L796.050775461075,184.9589966128338L795.0156196946649,183.24911500367904L792.9706986965024,184.1122241536869L789.9965873709365,182.840250696503L788.4307166043341,180.64371261750603L784.2952055583813,179.11813132654248L779.7369715841116,176.50724492153296L781.1352477857604,175.46998307422945L777.0319440685496,173.2392007302916L772.1881391592228,171.61668969628334L770.2900834923136,172.08669897175122L768.1977090153797,171.35058612204784L765.1633808216075,169.47801331672525L762.9744532580111,168.82786925212122L766.084760774859,170.93124808484652L759.050109160484,167.69472180294775L755.0179766018013,166.4386863272751L747.6462837939616,162.77833568529206L742.065104781751,159.6069601329051ZM284.7825458239154,236.74433020878917L283.34547568467883,237.23414065644897L285.1667763198106,234.0978565589973L286.9272576832126,233.74993367843513L287.00251990579335,234.6636051489972ZM536.7289594243879,213.13720731272315L536.1665427818343,215.90236763483887L532.9431286804346,214.60216742101744L533.9423398294047,212.55359356766525ZM526.3267237154881,212.40919837858024L522.7706843409198,215.8319115600583L519.0367122234551,215.06556723264777L521.2071316845371,212.3750429827005L526.1430210530802,211.4908071892703ZM305.251046790277,213.73345702437842L305.18607523385117,214.83713216516168L303.54891265939995,217.73987881531673L301.0647792897956,218.8612138358056L303.0566251051508,216.28910621172992L302.8013454903137,215.51740903956733ZM511.79383503772885,201.0488964773565L512.798339785145,202.8947564387313L514.3506195766436,201.8960767108244L516.5384475415525,202.71346856391085L524.8555084155464,204.22993995645623L525.8145853464533,206.3195355028614L528.2333217550915,205.47705911045608L531.2104857310626,206.49422519911496L528.5774301421479,208.53961891468015L522.7950851311455,208.4805223160567L520.2949768696349,206.78353382282688L517.448279517595,209.8734414755483L512.8990332069807,213.22681514114652L511.1714794022549,210.68645999745019L506.46906157834906,211.98483403965207L509.151284298569,209.13336413089843L509.36810438621075,201.10458889584896ZM676.3384783531608,146.01727481153716L680.9661470239386,147.6849908894339L687.1208055603762,148.50728447465843L691.5651096098726,151.37911736721713L693.6656570978232,156.6248775684744L684.7448322220927,158.64799499690065L683.0197535532894,156.62013351330654L676.4285321556762,157.00410476367608L677.5990104119767,155.08718759368605L675.4415743922666,154.33686955375754L670.832269938342,155.3408609814423L667.2045037889811,153.11539071092233L668.2015505700322,151.61152680890882L675.0745530121753,152.16025687905227L672.9638018141426,149.68167403637597L676.4573552399803,149.45403858103043L674.2240152117856,147.01683049324765ZM538.781479961061,189.01163946409787L535.4933943244445,189.92483067942334L533.8275261076129,188.09960020274002L534.0139526953042,185.61167312937255L536.3835640836514,184.51493009182138L539.2050214551878,185.11691364331062L540.1031928963369,187.42119637329387ZM305.54096632887706,203.4143439346028L306.20049523377554,202.93699669242397L306.32326916442224,202.8477243190987L306.32364231683283,202.8474546425544L319.51075789375386,193.66319993523575L333.01036610304254,184.94476372432683L346.8060197515508,176.7027680813784L360.8809109603656,168.9472546084993L370.2772663190036,164.1185645761418L367.28211543213195,165.71095720675714L364.11431557195294,167.43822230046544L360.61661143676895,169.2868726830912L356.0584198739118,171.6532816270788L352.97081765998666,173.40594652335437L352.9863246341605,173.5406748700447L351.5586926958346,174.54772648031667L348.7151264815626,176.40123446116303L348.07077382306966,177.13769992461806L340.9620555205848,181.49036257232603L342.3720777019811,181.02256799330007L347.1564651132109,178.16108123924135L349.9274919452055,176.78367327395097L346.4741546408892,179.60463396071623L346.14645277220006,180.50447222418921L342.1487389207207,183.878817976169L338.93618961432077,186.352198418892L338.93618961432077,186.352198418892L333.57566194394644,190.7622542602473L327.0258588760364,196.36359346302754L322.83578659289765,199.03828414646466L321.28553860990627,200.5003329588157L326.1133679979598,197.17524019743183L325.7771801154982,199.20661567835066L320.2984094537146,204.39887050432668L317.02066442464024,205.9024103130264L315.7752988980143,205.52397960562672L309.35911987785386,210.0603814420856L307.89670437607566,210.81148506684235L307.8412344397974,210.14710860625155L309.9590812993342,208.08318783333L311.678636948912,205.97644326606894L314.5248838570255,203.86657299031623L315.53971451920324,202.54808710266343L314.6908322856649,202.4604979045452L317.040607936758,200.5797669036965L319.4953826780455,199.07309300179736L318.0206381673255,199.40773667207299L314.8510556296511,201.75873953704217L312.1138825410787,203.30972670623038L312.08143454427335,203.3280537847035L309.4163127068394,204.49743618685164L310.2244925082739,203.32571879498835L306.51764716933155,206.31734506757834L301.0589851521053,210.5063290189692L299.2420149347818,212.07308915018552L294.9380416806436,215.18895833311387L296.7961763973262,212.86018814697331L293.18114340049135,214.3800921163632L292.92402474818357,214.2609684546032L286.85055342790054,218.146915289545L284.4023048811768,220.0277592061052L289.7922902715909,215.54314657421236L287.8414183944738,216.9278737536269L287.84177746674425,216.92758559522474L300.54876221261526,207.0897458711704ZM1018.8974973358843,450.2623093356234L1017.7228427174773,446.3469903308576L1018.0316345952233,448.67630355954503L1018.6816422588229,453.4846002633351L1020.1398506998579,467.2224470144954L1017.699847431816,466.74570072359575L1016.2913103936598,471.0231785586085L1015.5543106301407,478.7433043301416L1014.8944409229443,479.3541787492875L1012.4213256567696,477.3712529812736L1006.7257455136909,470.2727562271992L1004.052416706885,466.48198733045575L1001.0397755095842,464.5203464696372L998.7173711354452,461.33745877762914L995.3513137518687,453.47848895375915L991.0071650124876,447.4824594832663L989.0020138285853,445.87964556032034L986.5832332602174,441.3708160314052L981.8067345111235,438.67570537551444L978.6368635470192,434.78238763989634L975.1151043862169,427.89952566289753L974.072661818692,424.3995807337285L970.5707899415993,419.3849181228028L968.1480797272991,417.63675318019557L968.6617955348506,415.4895263369971L966.3876658792547,405.3915232136011L960.1664042939153,390.6549804469631L954.0643740437215,380.50487257700405L952.3783987662712,376.8215857892949L946.9267652577964,371.77581664618765L943.5813222494179,365.4750127118858L941.9846519321227,358.8394449520965L938.2027105433624,351.25662119001834L936.7049516612151,344.43846555468593L932.3351325668816,336.5324404628582L930.2586354778342,331.88284330732364L929.8964078277565,328.4453279461152L926.301712806358,320.82517036734004L925.3400985913426,317.47479728619277L926.4191012658108,315.3556019156147L923.8145445764133,307.4134355409468L920.8431289712682,300.97192432016124L914.1002782854858,293.64923791278056L907.4912888628614,284.5121178155422L904.6883468533973,279.59475403988625L901.9216172320412,272.1286207029934L893.6170709178882,261.38848372054434L894.2806882895782,260.4601478062127L897.182445334573,262.09382723354497L897.4680207148431,260.49842440341064L899.6418871463534,259.9730347430325L896.9449093450801,255.73106340464506L896.3048166481834,253.4775154402501L894.0612831846264,250.45636520764089L892.4237555761154,247.6728631112701L890.5798923938744,242.54940398886367L891.2841375105015,242.8006503047668L888.6158493918767,239.700871869271L888.3663833529125,238.36482445488144L885.1958065218917,235.15157268653667L885.3146458137428,235.10546994066158L888.2915261413359,237.8143652995596L885.374768401676,235.05857638529466L889.7239610198303,239.07742196575168L893.4873382036667,242.5844736060173L898.502964471993,247.43026837236812L901.9280820420538,250.8604108323886L904.7745040699965,253.7140586195282L904.459642350906,253.3819234036709L904.4599649688186,253.38225186347466L915.5190730701098,265.0418693431325L926.164529479769,277.08034140556765L936.383364348968,289.4830010269565L946.1631276015094,302.23473747703366L955.4919041023272,315.3200147291892L964.3583281742428,328.7228903887237L972.7515974452926,342.4270351162008L980.6614860097538,356.4157525222317L988.0783568868356,370.67199950945394L994.9931737618558,385.17840703692L1001.3975119955977,399.91730128159855L1007.2835688884363,414.870725171205L1012.6441731867255,430.02046026212827L1017.4727938198654,445.3480489357978ZM832.9604569772903,193.97973411084303L834.8605649103422,195.26504007293727L833.0252128926231,194.0334500217033L829.7663544667281,191.8564146583185L829.6781984951243,191.8514497326994L832.8197046496426,194.0306694086238L837.9532748039904,197.50588189285895L840.9067857570599,199.5075096490961L843.1231543943652,201.01588601442273L843.6912068825609,201.4207990854831L843.6915814616282,201.4210667768774L856.6011272278326,210.99155160672012L858.4129198617177,212.39155304754115L856.4860748361725,210.9410017939664L850.2363669421134,206.55868585996836L844.1644934431473,202.29227040515457L842.2313502796023,201.43060161005508L851.4979673737985,209.2831360801298L850.410062511217,209.9229499272044L852.7313951660408,212.90625082367364L860.2735555712616,218.65621096942016L864.4892208494753,222.91899814342565L865.7055741636552,225.35138403561376L871.0940972246244,230.63079769659026L875.9835753133178,235.26134167059666L879.5478451789988,237.80969704345029L882.0732025420839,240.82106560648532L885.8804994473951,244.54496150264447L886.788436329105,246.51275270616333L890.991498375256,251.56296493190177L889.60858696643,254.26729952259558L893.0316372615724,259.6183319568415L892.1267898388235,259.7794090779521L886.2473094419,255.52758248698433L884.3960955382263,255.863414831216L885.4595383642961,257.8260425630644L884.0683883388804,259.01902863241713L875.9867191302137,251.2336847614024L872.3478234331424,249.55619246555233L868.550619097159,245.93621050306615L866.8483476920001,243.48751099866467L861.0642594732187,237.85279463188465L855.9923632237678,234.09384325857985L849.4589160906819,228.76720365789623L846.2493079499413,227.09275756920175L843.2156467453966,221.8545640692862L845.5444047006056,221.30325625538308L846.6171258257787,219.7210471641178L848.4730392383973,219.33579932244356L849.6589553935246,216.5197199176303L845.9879017608251,213.11094433737213L832.9641855947724,203.74279153350489L825.5578148190463,200.15175639050466L821.8122101775019,198.702443143704L818.3568265443406,198.61271245331193L813.3489379107464,195.5955022700938L812.5855251836407,193.35153705736934L815.0655792453537,192.75414729753874L807.1532597519173,188.38834136013793L810.4400246563564,189.22564023317534L805.4610555615221,183.890740724698L799.7519449342327,180.41436492918598L796.9088921253582,177.41608006241734L794.9154001323357,175.9450754110582L784.292974039442,169.8629523898827L780.9422438097532,167.31217049775495L780.8591304892773,166.76660701874158L778.5180520756198,165.07592732342192L780.0063092592522,165.6854332490504L776.1328315357605,163.51839656709518L769.4758406309027,160.6158375056326L765.6402725875562,159.13039707952953L758.1836713488271,155.9774038913818L753.7845429168208,153.9553777851811L752.8940415199964,153.1856489485167L748.1204758101951,150.8198290041733L756.4684642909028,154.22199007230165L757.2217393185671,154.31518250263457L765.1921740042114,158.20440672943147L771.3323624484086,160.79880192973798L772.3475034605498,160.85536109737524L774.899388522203,162.0316138580606L770.3933757577868,159.4463292058726L774.0432303439898,160.7226785804578L771.2901291500258,159.3245813389948L762.5082480656426,155.08435551492892L762.4678532768282,155.0511911237528L762.4682742255438,155.0513775918165L777.0455778507462,161.81545704039178L791.3779384080349,169.08415655432543L805.4478941238013,176.84862034291694L819.2383029243167,185.09938860306403L832.732363320707,193.82640904457503ZM716.8707405390594,137.68094444802307L716.0392437811231,137.42757893231402L708.6588160785466,135.15751900691959L702.6793961288078,133.47169520192904L697.869581776226,132.12170736631447L692.2118162338097,130.58174645328359L681.514031964706,127.87136458065368L679.1395217657318,127.30865220213576L676.2252650477651,126.66119571953112L674.5242655745038,126.37468588014917L678.5698801945334,127.40029173674861L684.780316061071,128.90269925522142L689.1060343883094,129.90774243849773L705.0957060853725,134.57074107109656L716.2211201216768,137.95001087667595L720.6798140213303,139.22325111824375L723.6984738270244,140.07924451062956L732.9018239503599,143.3303080750881L735.7069278353188,144.4744775198708L748.2488711593408,149.25251129748017L755.5716927888286,152.29448646810306L756.0843453459756,152.72703862244646L762.3048395873755,155.47231490868353L763.6482453098861,156.34486796596343L757.0902412252433,153.67045966166387L749.43731134422,150.87522660772163L739.5251233980898,147.42747237293025L735.3580565848486,146.20917664760418L744.9728150627043,150.60082444690534L747.237031438193,152.15542431471096L743.8546626180927,151.65888299101277L735.8800717670883,148.9400664414684L718.44524267599,143.27808188363701L713.3404159185925,141.20195759637045L706.0907634119878,137.8116722381215L697.3207235268138,134.65021955819384L683.3913781523647,130.6349428184672L669.3477287649528,127.09369867004398L650.824126015989,122.97158078409512L645.679206509069,121.83533124017794L644.5684462138419,121.40951350498085L636.9710459881367,120.2598382877992L635.4449790706367,119.8484243302068L632.051404192204,119.28511683158558L633.4920167780181,119.23548880959225L637.0038562346133,119.72008866114362L639.9948464930465,120.07548649789948L636.1867561202639,119.5526675989853L636.5449317207638,119.59834439068027L636.5453881223891,119.59840493584022L652.4366914697843,121.98943602912385L668.2348684827931,124.93360905963976L683.920671516248,128.42733700606544L699.4749898353655,132.46636329906568L714.8788728992329,137.04576700726676ZM479.28485243746525,191.29115085966146L477.337045308208,193.05082201814201L473.7576600514273,192.29262865656864L471.39759440571333,193.0869601662427L468.0577396337427,191.6633432256673L473.0184868202686,187.92799568825683L477.1104109923083,189.23837366587617ZM356.7294390528355,176.47396533645247L351.91840306088534,179.04343448624337L351.7021239984383,178.70373385517576L353.94889171978787,177.42879882702175ZM356.7294390528355,176.47396533645247L356.92913129628846,176.77705769498948L354.87548588988614,178.5111559492692L352.25146433349556,179.43089013518272L351.9184030608852,179.04343448624343ZM493.5636089553929,187.44032009876491L493.69480974040283,191.7049695253363L497.32502817398193,187.80328992311973L500.9738505499196,189.88289101006654L500.4399418572677,193.15126344683767L503.72012619782026,195.53603944214103L506.40452251179784,191.90541593576438L507.8829987652097,187.95008361692084L507.19331933494374,183.51448649626525L515.3209530894212,182.9320357782218L519.6529121999632,184.1663848879174L520.4888908916321,186.09894545104288L519.0243212200337,188.6648225850666L521.8159624362382,190.4541287161146L522.0832197394891,192.55310938958468L516.8557565692776,196.676429751052L512.6089960727867,198.15738328124917L509.07661865524324,197.43720628252248L508.52439159945493,199.80889534911563L505.298859355543,206.2955455947074L501.73401479840703,210.11767667039118L496.8174484220596,211.26207287827964L494.1806296504816,213.73046147385912L494.1175360479623,216.9029398180366L489.95736959836427,218.19138541746048L485.53661217036154,222.91292424190942L481.3992439001628,229.25826600694387L479.8025699314584,233.5831316044298L479.4544876637261,239.7676374370812L485.42756398618155,239.74586295107383L489.52975725396715,248.3350646650784L495.4456753000562,246.2865210683504L503.6632781660214,247.32300512597334L511.7766317580877,250.71888315727716L517.5867907798846,251.25046803732573L522.7638565928526,252.7274262335294L535.2930760678415,251.29375173521868L535.776384318079,256.2256654562849L538.6560208287258,261.61176415804243L543.783482974269,267.3503056925963L552.5873268855104,271.43554205866235L555.7846857204441,268.8015910547294L556.5126509455407,262.40056120407417L551.2128112670555,254.04133238523514L547.0826059224833,251.78192257049102L553.4554221413451,247.79220846365638L557.0896208110037,243.00549839511365L558.0809488002891,238.84246180280792L556.3781701889295,235.4401141859438L551.8499850167607,231.67284756214298L545.4659171446384,228.87327531423693L548.2026112075627,222.71114375977675L544.795904006573,218.66099067014255L540.6671957381161,211.53605724907902L542.7546114573722,209.94857247716584L553.37664434238,209.57128774638664L555.73856123013,207.73852143407112L565.7554347731624,210.20609326743755L567.8817001348796,211.73383043567532L574.5979441263695,210.59630030193694L576.8678185113504,214.49508765646857L581.727022553876,220.17879151209115L585.7191788950497,220.0958792584144L590.3054586936681,222.25954582920133L594.1650512157562,218.25878208786725L594.1493287383441,212.2410825556709L595.0009941113566,209.53438211718537L600.8940160960434,212.8853000451735L618.8735342575407,222.17511125825627L619.6090251850503,225.62138571041277L626.9668373521664,226.99489363696375L632.7257178041825,228.85489910097954L640.0461732539311,228.40883048841437L643.884311327272,229.28207830530835L648.9171955124579,233.0528191683382L652.5774300457001,232.83908550697527L655.7693745940603,234.27651129672176L660.7623907787482,239.91664408688945L657.6997958513465,245.39575142925435L652.0108783661166,249.22937905223563L649.5786926298288,255.16096996152476L642.5178290153833,258.06647150370407L631.9628803183729,259.4119546806688L620.3295717047272,262.6880192823759L618.5285598150862,267.70917992735076L613.6491978422983,271.7206162014926L606.7198221471723,287.99299722042116L610.6767792324285,286.0054746558324L615.1620575666549,276.344593172553L622.9745767549579,269.06879431332834L629.8456600996452,266.7407964093028L635.6576600699619,268.48123892913844L633.2813955159162,273.4728773490716L642.3571574561741,283.4163248348325L650.5243884930921,284.735418393299L658.262390784382,281.7519238740679L659.1595039119169,273.91482422276357L662.0976812640317,278.0410214709516L666.5554819934658,279.3188919611056L662.8007471063518,284.7967118315401L653.6423376248471,291.2452840226543L649.8296354237814,294.9951414642785L646.2352483025428,300.88039132396904L641.9705061954863,301.4088044604832L639.2000367893907,296.2463314149756L645.6351584052962,289.0093431336777L632.07663215416,293.3786380753817L633.9540428708741,295.16444442230744L629.727841575801,299.48535131595054L620.2591541549319,306.1017875392452L618.567133669631,312.15377400231426L623.1086719202801,318.52147217743897L626.5293851855565,318.9161527996688L610.9939350109885,325.35046315843175L606.8691337853309,328.29698624817195L614.9023621720028,325.2016771284333L617.0642744630318,326.06025986863153L605.973143601496,330.63559882563544L606.9169474151803,336.974235928889L604.2728218092311,343.06846355044934L599.3581334878731,340.10447927727705L604.5490411287942,346.869835328916L601.6678335456679,356.1205428319457L601.501605851012,350.90256228836324L597.5860226112079,348.9533660866948L595.151143334156,343.4878907120492L594.8872521297936,346.6459919711856L600.2286165374647,358.2550561138422L602.1345713950201,358.36360514367027L606.4718620356535,367.3704971794708L603.991090014177,373.41673262754057L597.9534245958631,376.87857294204207L594.8587224364854,381.8937395181025L591.7369002944037,383.0089114318348L588.8035643903331,388.8908069953344L582.7183128483713,394.9906484094677L577.6127735370197,404.1047469806942L577.7349599346976,409.49530425224333L583.7814975143885,420.25068465042756L594.0941064960591,436.1388394056154L595.3856896445255,444.2374017900024L594.6657097712558,449.20017586412587L589.0448908356692,450.3357797617944L584.122019369209,446.0143485150452L572.8896973349988,432.37585240800604L573.2827937567977,427.13625757559043L563.8877831938701,418.20021108433787L561.0028895501107,417.5518940659163L554.7185189561984,422.19810347307475L544.8653347139547,418.09903285871746L537.304476878355,420.39718313130504L531.0980479089109,420.61347800204845L523.2146826909025,423.55128752496006L525.6815212079431,430.927247996714L515.5266559181542,432.7008266083101L509.8825405571248,429.549401939256L504.0201880072333,431.44566099738574L498.8399744189694,430.4837343548436L489.0597527882274,434.3209795323822L483.3485808280403,440.8718525416327L476.80379004550764,445.1596423401494L472.0491313085489,453.0181403251221L473.08202946125317,461.9655208412632L474.6278954827255,464.4262556319062L471.771135352686,477.3385961848236L471.89640548748105,491.7631861747899L478.30541939386,505.2324502877847L483.8103054707704,510.38844925748754L489.421420897335,518.0855265086353L497.57325445343986,519.002920212736L501.0611082520122,521.8361880784047L522.8336255504985,512.5353120267375L527.0894482122202,508.5636793743289L528.733549824021,494.5369856678175L540.9267802366019,488.5399803575832L551.862611215992,486.25621900830623L554.3047282865177,491.38005274842084L551.1225576485351,496.70083474989775L551.7588605453977,502.88630846543936L550.3684980085222,512.8912685856303L548.1115956920199,511.20541111706524L548.7264378814444,527.1583387852651L545.1870768771472,532.9726999763059L564.2641431587433,530.5037819782755L567.296365469924,528.164560019707L579.9676307640073,527.2582621557734L590.5022456798218,532.1195958960527L591.2876116404009,537.5576591643714L590.2169929270278,547.4215507389436L591.8782957049848,552.887844861321L590.4767679346697,561.6923177870001L595.4044090550383,568.7569045775723L606.6252476729801,576.3567565919572L613.080218584579,578.5674030789637L624.0867151120358,572.1097999527328L626.2676030266877,569.237507779936L638.5568484676024,569.7484567603125L644.8780569083251,573.1877921821339L648.8850370950767,572.6097945024286L653.5252907443587,565.9185394826123L656.4864828863332,564.4195378992083L656.0134097875766,554.8582573711703L664.5431960196312,547.3595604275412L670.5990482361287,546.7253478684262L678.1271430797494,539.0778551480419L680.8434067776661,534.5018641239184L686.007918794872,536.0139108920592L685.3929732603392,540.8638208852515L681.2305641873071,542.7597998012925L685.3348255162618,549.8816776953812L683.0345004082217,555.1769202713064L687.2450199893758,560.7706471218524L690.3747241496088,559.5365872179918L690.7827364441663,553.4907648962183L687.8492409872084,551.2535881353205L686.1279103692366,545.4097647927808L694.6380930033591,540.1130778815372L692.7597050647889,536.6657464627L694.7503983981504,533.6140115800687L698.7109932844309,538.4902696355707L703.9025718262053,537.4076002176191L710.602117690518,543.1667443750914L724.7451001115777,539.0057633184318L729.7307892787231,541.4836564405075L735.4857923872512,541.0860381208046L738.496317129652,535.6683021672717L755.5744582618098,530.6989045735585L750.1958362536122,534.5435474789141L753.5345146883042,537.6034538900603L759.2919706865657,536.7301570799684L765.5361828250891,539.1842678904893L768.2139779017303,545.1269193675721L771.7752927650788,543.9998505589931L780.1895966816996,546.7496539990912L789.429474373276,554.120347548259L797.2730250095541,558.8972811955005L805.7088423754791,558.2007247660612L811.3583587072309,554.4764423270858L826.5458689451432,555.1674780578888L838.7204411909522,561.5534901497284L847.6001846112283,577.9365569874288L851.2195299740333,578.1739829708201L852.4191874482499,583.5084469525095L848.9044348394821,591.3886801095019L851.2770075012238,593.1345662881056L862.4776904748257,590.9042704455886L864.0308367744128,598.6505350938228L867.8045730121605,592.0529981661809L886.3904162911023,593.8865013224481L889.9105889193627,597.4917359293011L889.6207407241898,602.1159457284891L895.9080526550654,597.4377129644328L907.3159164999529,597.7446337263149L915.3231109949982,594.5100802810045L923.936307361514,598.0529822935738L931.4854771438615,604.2724710622883L935.5612418467545,605.0079967929146L939.7609592262647,603.6628966095933L941.7656778084371,605.404907724967L945.4416159749636,619.0241548367761L944.363223606267,632.5980921479857L942.1588356048263,638.6167577548567L935.6830741179209,652.0364269629855L932.6881594239738,661.9238589619571L926.3243815252066,676.7208264251099L926.3706571187398,690.7518845789965L923.602980804145,707.952141656297L921.8169794760831,711.4752691304191L920.1406023124912,721.6912349332779L914.1158277658849,733.1269474125883L912.4230631195987,740.9391713329973L907.9507668587099,745.5435334800532L906.2170238468677,750.2883355158715L900.6396661203971,752.2311352580455L892.0524883577875,757.8144043964062L887.9247047202869,762.2372949629927L881.636555881405,766.312373883639L874.5142632393913,773.9921943480505L868.9577896764129,782.3784928990591L867.4267242166421,787.778055603644L867.7689980767248,791.2672787718511L863.8822940811076,802.1365727165792L859.4361138729325,807.0180214327759L851.278321822758,820.5009612381282L841.2090597694566,831.2249523198503L837.4879451777235,838.0185629148377L829.9524815987309,847.2835690823754L823.0887571077408,852.4857921463927L816.1664589145753,853.9229698701453L811.5311246494024,852.7407660171805L807.6604081963709,854.0002422072891L804.7776820600751,851.5531538798405L803.8537243901794,854.856838289911L810.0558826250513,858.0979405470184L808.4645876317984,862.4725617710203L811.3354209947611,864.1225472419003L810.4173379216645,867.1100412798821L803.4994418837188,876.0644823888703L794.774190058828,881.3398049182472L783.5582142728872,885.4379631820457L777.5851491751537,886.4541741080363L778.1233332850748,889.4954288622171L776.1644586620921,893.9382823613751L776.5822741416981,896.4494660948396L772.920340795651,899.2029099164546L767.2177269684884,901.3632983553831L762.3241621690415,900.7110910800002L759.9297405976896,902.6549511409274L759.7182720868607,907.7491010792747L763.0492089041435,908.425456371297L766.3349212730591,906.0263952287323L767.3144137867987,908.3682431367122L762.0767030310706,911.216016063524L757.1289237337809,915.4811554173623L753.4046658355558,923.7408408994356L748.5005114784042,924.9533175435986L743.8946917865604,928.4373987608626L741.6538422553883,932.4008849307568L745.8776180136408,934.6701554436138L750.4120304447632,934.4553537644938L747.5813752374243,939.0593052477935L741.1134158479892,943.0288364973454L736.6059599568721,948.9789914625985L731.7791299956488,951.7290334355198L729.3341773326944,954.1760497000753L729.6777954602685,958.1692012733824L732.0401032908076,959.8214399886544L726.1127334494627,960.9920852342523L719.1389674215483,964.8671831289523L717.4651478705546,968.6633590642588L710.7534185340246,969.0769919686231L706.0335522542147,967.5424268446188L700.5533264250754,966.566928471166L699.3830636365703,964.3800614029117L701.0373512672788,961.7287587295134L698.8687972509514,959.526376669954L698.8476279250492,952.4541689158171L701.3767840940912,947.7687339165752L707.1778511267751,943.1051654239773L699.2497283576445,943.4944093149566L704.5975781785198,938.3314716463202L706.9311845819766,930.0092061174971L712.9299560383454,930.3887008187553L716.6095802212502,919.468829111538L712.9002399622202,918.9516536283868L710.7659855258619,925.6114307634039L707.279581829988,925.6789240450612L711.725385415303,908.0018318757492L714.5457643232662,903.753962597189L712.9887631002393,898.8288834607288L712.584632430663,892.7012590328735L715.1612064845597,891.9583445884928L723.4998185181437,871.648559145614L726.2565274154736,862.1103350956796L724.7282492110824,853.2760154741692L726.6216899336245,847.7086430101169L725.6676243722825,840.0984864583377L729.394953830044,831.3912974096363L730.2086935369556,818.4696835687857L733.1563675813111,788.2839153050204L731.8936501444823,776.9958774680421L729.6444375277675,767.395073274389L722.0611953348748,764.9443173559919L721.1672734883684,762.1622460287497L705.9480187862304,758.1827227205104L691.7522657633925,753.1619512235459L685.4277567599837,749.9026108878013L681.5233167568592,744.5412210090825L682.4890018628455,742.1775098285664L674.721248312657,733.8793886773689L665.1734160616633,721.7427638228662L655.5792086078151,708.2777334838695L648.5085698519428,700.3910242028404L635.5476779713077,694.6298803879482L637.5046934154343,690.7327657840667L632.4857867190104,684.1779859503554L633.9887623652874,678.3316648223655L639.3874020483196,672.2567287548793L642.5623117260416,665.6610221518968L640.2834686701422,662.6186917928479L637.9189294997739,666.8062847154906L632.6388145703772,664.3325526226077L633.8384790581555,661.8364848010059L631.2702531838165,655.0586995419467L633.8058011222564,653.353676597688L636.482783386512,642.612876046341L635.3462166578989,639.5412975356339L644.1491979676391,632.8303082267188L645.7050455334082,622.391344365617L649.4796287232466,621.074047943664L654.0279027319692,610.7519082850534L650.821764400746,609.4652304124974L651.4063556397605,604.6057987087953L648.292814533871,597.7757655746963L649.5380147389333,595.3738258812368L647.0101422125528,588.9662966239788L640.0290798663558,583.6683734009362L639.020692901729,577.2578506456194L630.7308115718857,573.3812551852911L621.5770883113443,582.6085699910691L626.0964423344038,586.1662644376736L619.7233855804977,590.0870421859602L617.4797280683165,585.6367061221097L614.0567253711451,587.2118614302543L611.8833506819933,584.3356088265815L602.0264027077412,585.2672235799548L595.577316911782,582.9453750294008L595.5905522877237,579.7203435108919L584.5505980801793,575.6666917417041L583.3502227478243,577.8337585461002L577.1679296767578,574.2218561203897L576.4877972327024,566.5651895297733L558.7982322077214,554.8359814550415L557.2101245842691,551.2384288757977L552.1837845680908,553.9073121014285L541.4900389599873,552.8069830875072L534.8838519047611,550.7362668349068L530.0562094982071,551.3732080136488L521.7110581599828,547.7554020290883L511.85516720548446,540.584747941738L501.13343136763297,537.4951386205572L487.61991949537486,543.9336388958845L476.25777958746755,541.8972975235456L468.85121549034966,539.2297793577188L454.4235178489168,536.2950089268437L445.8544680258286,531.4223820033287L434.1109954450831,529.8815490819376L430.8108304778316,526.6222673383169L422.7725111341888,523.0468919034482L416.9841349842061,514.7913482123312L419.8211864147025,506.6104625728332L413.98968726828565,496.56737521640645L407.6683358750229,489.4420541978725L400.6735333934374,484.0616101199529L397.33905650998577,479.53706300618103L390.3924074750462,475.1557988474454L391.41266594235753,470.2382761495146L384.2746756671239,465.37245526511583L382.7928403642039,460.12259514228487L379.3619385688139,459.8279354519454L372.9887530695158,452.6207262722786L367.99988709763784,439.08181490548407L368.3232738630962,436.13756787398273L358.8517014050532,432.18350304898115L357.6152376178177,435.35701922527346L358.41005054645643,444.6584126685543L368.1632283109823,457.1327877600919L369.2088818794874,462.01469482642756L376.2523966244125,470.0229567160947L378.26083703718734,477.0829092151448L381.9794762788533,483.8194154131536L382.3289415248697,487.9153043261783L385.54068979783995,487.8639417589375L390.7289323133946,494.426467730438L386.61297725775955,499.1182391065898L384.7630693812781,494.5076040899579L380.36799998806663,490.4475245953628L372.2861184927631,485.4168719793767L371.70231066140514,475.5188557441828L364.42664614747105,470.28255402272214L358.2216933601836,467.9091776462924L354.77124577792256,463.69674772876607L357.81118958521415,463.3029483168444L360.71643665013085,456.6989844063596L356.31564161002586,451.5766019010948L352.8871376004525,449.73824223763245L347.17071513412566,434.341199511177L345.0915569237253,423.87326297511106L339.1278938612025,416.9505109677959L334.33818589515323,414.8808460844236L329.326244735538,414.44475875680007L328.20645746314216,409.2471998952222L324.41545188175127,402.0397622049746L322.24732219391115,391.9860214589844L318.7067822542919,382.0180761250954L319.56154877343215,376.1264907118406L318.03111932273305,372.2897607217966L320.7608057553058,366.30748396721594L322.37294728387803,360.2038141739629L322.52175045085676,354.8456761711029L326.42889808696134,348.1620750333127L331.6933790959215,335.57251472600285L334.13294447236444,326.4938588471902L334.896809799087,317.7567865947831L335.90703696867826,316.4445601649501L341.2117201266398,318.42588677897555L341.2536228654723,324.6317170955105L342.9590881197273,322.8051370215413L344.2348722827221,317.3630593153529L344.23530939880345,312.0372538828779L337.15591716225344,303.2547811631248L331.2915635636231,300.7912953339318L331.91404379332585,295.1738190525749L334.39087972302804,291.2772279421223L331.10500935754726,288.68447193473094L333.19736025897225,283.6647210224946L331.5411249904875,279.2307292076787L333.30563010723347,276.08245608684376L331.1625180612714,271.8832174146773L333.58838200294974,266.6590800261769L332.826214143175,261.8525355172493L335.08277165587447,256.3296178429911L328.28926254832743,255.6547966167313L326.38557697102453,253.88833481145087L325.83122460211587,247.74152632776372L322.0408428287044,244.25248716482594L318.52037240375404,244.45616264246246L316.6667645187738,241.48821805806364L316.5047597938709,238.86559342487902L313.2300615783997,239.73049092457478L309.9558273719747,243.61113456166885L305.2304267460582,244.6293863382702L298.6468080446437,247.0512515518045L301.58579778568145,243.7320792611065L307.7412863071452,238.50602137299802L311.2810378948119,237.16720078586985L312.17798684654986,235.73443424579676L306.9232944127491,238.33941389178955L302.08886507922415,241.7448249989696L295.78688370427983,245.1425714584912L294.3348906578867,248.11958800543084L288.8468612709356,251.7973990294471L281.5525128146544,255.05089570245178L278.7607405271128,257.4699100862437L273.5880257613622,259.7207832959859L270.5743062481233,262.29591374815294L266.59267396490685,264.1936214644144L266.06648926028777,263.39104381060736L257.40035838596935,267.41944752122214L253.9577033850092,268.0640057029277L254.7158117290639,266.98460150147173L261.2229857844665,263.69474175703806L265.51041331634144,261.1129889139648L267.6944353922495,261.1343252965446L270.60737886329724,259.0172154705538L280.2314494803615,253.58040564385135L284.69704923181524,249.38507853172484L288.739464586855,246.3154035268367L285.4062771863158,247.4897939721816L285.94038504921025,246.384255963567L283.1559458661509,248.15634442899318L285.2019406429794,245.0364645884764L282.81000159456136,246.8907681830202L285.20003367393537,243.96626231330265L281.7083736600733,245.67198812089418L281.01051773687465,245.3620632925397L286.7222838867256,240.1540960403437L288.12834597861576,237.9192311941453L285.69589056792273,238.28083661159815L288.57175111034184,233.70607224676195L291.9987660644987,230.7451417796915L293.9995075187094,228.1330987632652L297.8470004552694,225.3888814156728L301.95295888160734,222.9657591043084L305.4370739646802,220.56355622215716L306.1913410643737,221.699103145504L309.9289650366819,219.64596659409506L310.0924447558853,220.39434916870357L312.7719412999886,219.17100748337606L315.41479366509657,216.82530502553186L315.98933345294046,215.70974232282208L319.1184949956812,214.1253421098046L316.1098736077177,214.5430875187492L314.44194782534413,215.49414869952085L315.16270024972874,214.06657922219875L313.321059455308,213.9789996133946L313.816867611864,212.1332794294829L316.13877191687743,210.01195714277156L319.1688915177183,206.68238553974834L322.7167012871553,205.3945454458289L327.4023477434089,204.10707646094926L328.013322381519,204.44791400826443L324.67586146109613,206.71708789134038L326.667568177151,207.40174360310965L329.9568876129819,204.186774693924L331.47726779037265,201.93633045056646L336.42888629163565,197.09390468355605L337.7273024129349,195.13856583044253L341.5563949749136,193.0912778705499L342.8607243692809,193.64241507997758L346.76991556123687,192.12706125255943L350.1862829726385,190.12648108014548L354.10224057331953,188.4542907336869L355.6003298409861,188.28440117378034L360.0626142460844,186.99392423018497L360.4007547974277,187.5454376480414L365.2754773469236,185.72379007252636L365.3498422288743,186.99389377183746L363.18875704631205,189.09130148865904L364.88361197818176,188.37314687077196L366.3384948884191,189.01877198437762L364.8275744993748,189.99861763863368L365.549131983776,191.0769573399079L367.40810683607975,190.8511613194193L368.2259443118797,192.63295811754625L370.691784203354,194.07816512752942L373.6056710181957,193.54348673194454L374.2694432583208,195.0772443532756L377.10517812051967,197.1051214024215L377.4042299783463,199.4330038717331L378.8597325391834,199.92859569226266L382.60930535875366,198.0455614999836L386.4304771648526,196.66698927706574L388.6979975639633,197.25342084661423L393.69738793715715,195.265865679736L398.0851518353726,194.11228411232662L397.62182063252413,195.96280337425094L400.178787007766,194.87866160250763L402.6875532345108,192.76169063588452L403.62840895845306,193.20389632548262L403.45306034075656,197.14456748605687L409.06839332317986,193.96979890454412L406.37542935693625,197.38553209235397L409.76023054031725,196.52415076113454L411.71794300207193,195.1593796253298L414.23883341865934,195.27758435560418L416.2839035021185,196.97241960231332L423.60330970203415,198.79449470643897L426.2602569421257,198.30699315519695L428.2995278118693,200.34558518206495L423.2123581308773,202.9539840602373L427.4497194203158,203.55503953333647L435.1144545306746,202.3219959252753L437.85051602356555,201.2845604435674L439.52418382365363,203.7586589457889L443.62345030486415,201.0899333613167L441.6822307089178,199.44530167757546L444.148431938094,197.70995401397823L449.90075422886093,196.45270725201266L453.6009559361612,199.38242797365155L456.8928242756502,198.63608588196303L461.3967383581444,200.02333675664863L466.1096420188074,198.70626780372476L470.3620949978767,198.22604999642851L470.5563525964118,195.5218890759504L473.236429029295,194.40235552852437L477.47496735245295,195.23473697007512L476.9425339612552,199.4226296395076L479.2348756080982,195.6141457987988L481.57623951276173,195.3790512558918L483.2331438417614,190.85908713217918L480.52087706121995,188.71435843420994L477.6106572129651,187.49113497219042L478.5520317858786,182.93889348952013L481.93178426450663,179.62184554002886L485.08537115412463,179.76063235340519L487.4772427430935,181.1019270608785L490.8798249646096,185.04100649339392L488.43936653448964,187.43173120915947ZM441.1228118039618,179.9439213173846L438.6819139676103,181.9456878653388L444.24037725991093,180.30023945227413L445.8863321519924,182.0763637928124L449.6203576554045,179.75825173570678L450.8254054908016,180.88115498496006L450.4658343692979,184.71719519946248L452.5244126484515,182.88528683036225L453.20668067523184,178.90352655527158L455.41845888283615,178.1215734308616L457.23574352686614,178.5136226894371L458.92364168496135,179.840694743725L458.1369861950519,186.45069670098854L465.60924378886887,189.41637493457006L464.7727813327418,191.33525754207903L460.26265923231307,192.25035599075977L461.46479460696276,193.70312864760768L460.03698673056005,195.4351673402092L455.28529705585976,195.35453223634426L451.098721220416,194.7027890080043L447.8926000029271,195.3207493409305L442.1809930448543,197.38047335975818L430.1941117543446,199.58323203680885L430.07223675359114,197.55192863636523L427.41387434071436,196.60423098742996L424.8852862245683,197.28310807228047L424.36105751237403,193.94339080125383L430.44283334171746,192.32054517658054L433.69444999687096,192.23150767608598L437.3137296048131,191.18836767384857L433.35087068062444,190.57446896215197L424.9313711246136,191.46747404021698L424.9678186679994,189.94234632832064L431.43566057647877,187.83531075018556L427.97241120002406,188.1530719354157L425.08757884423386,187.27314396570966L432.229662224202,182.2284216065084L439.62434676142954,179.33545379552595ZM462.28684493357497,176.65296633139116L459.14528179971234,179.4826529950612L457.12578386895626,177.10498434730954L461.06319152089407,175.99030709746677ZM525.7763008546339,167.3405102839901L526.5078480564945,168.21993328843183L521.5021020382636,169.06011739131998L519.1849668707557,170.03259044805242L515.1758090235152,168.62860138000008L515.7667490385702,166.95818307665138L520.9559874410614,166.30828953237517ZM502.40714954809425,171.63936461425908L504.6334985856372,173.56491459039177L506.1821584811664,170.29147455130868L511.46077801908353,167.8204198754991L516.6310825377279,170.631512279981L517.1561040625389,173.01326977663302L521.469213377505,171.04686014200166L523.0263745297075,169.22629711467147L529.1495323569842,169.87621984090822L533.4393254344665,170.8081785487334L534.7173289073103,172.2507549867853L538.7075599311236,170.47784430818695L542.8630778008111,172.08780974327493L549.9485507306795,172.07082028515043L553.3240357504086,172.9427213822268L558.6303920848547,175.6366033641935L555.1231792105547,178.47760003523285L563.5532469289827,179.3337487610741L568.644321190285,179.066179919916L575.8395660363891,181.44175305787428L580.5034161023951,180.55072938143417L582.2111817156307,183.39028866667906L581.1716080300857,189.21328732299713L575.9546775843131,188.4577462260895L568.1095342866379,185.85210166497143L564.6457908587959,187.26184218617368L565.9797873556231,189.6191597655889L571.0107822325425,191.18304828894975L578.9012432881759,192.7756501518399L584.3163953672022,196.32939310979668L585.6028667695724,199.6446941829999L580.491755448567,199.5264056465058L569.6766212695778,198.11636567127368L582.4437151958077,202.43350125697242L584.1226663123266,203.81787661491455L573.4877355802146,204.30973672545667L564.4346716320279,203.4660814004189L559.0117773296137,202.27061475826963L559.4806016155763,200.77526840222134L547.2650038669207,198.61963934024595L547.960370735744,199.85524555468305L538.5639202394731,202.58543563055088L535.0955161685756,201.64912241019454L535.9659708110901,198.00192020175479L542.0335659842334,196.66639734469834L548.361478139463,194.71358336831514L546.4990622312966,193.45243906684993L546.4484219592525,191.1701238859455L548.0572633138935,186.40452059195684L544.2513248182365,183.76813665369974L538.813305464767,182.8452778093607L532.4294765032496,182.73546886911691L533.719648932252,181.3916201191456L529.6536158772859,179.64020100174264L527.1779160419006,179.90892611653072L524.5051684304588,179.05296000795568L523.5379760471794,180.45949170944596L518.8159773429223,181.91496470419253L508.6885811867824,182.8981700958039L498.40437645386334,182.90630336652032L496.1168784019292,181.89236164350024L498.6744698236005,179.655739431308L495.06095370233027,180.25202071292114L494.13852454623026,176.49778508241877L495.8175469920438,172.88086621045971L498.05452926873335,171.01201346777486L503.670062503195,169.06316774360778ZM471.87220740035457,173.89952561868046L474.2050494992899,174.34316189451164L478.2315783348077,173.32005573142663L478.5517653331831,174.32934391508826L476.02626618091244,176.448529319364L479.15866285384254,177.60383675594483L478.0643055403504,181.19576674680104L473.6808851832891,183.32967351012917L471.3647349212771,183.31828386839555L470.0933676254878,182.0085753521633L465.25416330874504,179.68653738516554L465.77748826552255,178.4163992123802L470.25610770285067,178.2984447142129L468.646948747942,176.08496329813187ZM487.0927971326968,175.61565058091008L484.26602898726867,178.87364315547137L481.5214586999795,179.1458822846874L480.6056419787045,175.97729581203936L480.9806167335736,174.09309739876556L482.4152324311716,172.34424379931642L484.7226241190801,171.02402113024857L489.2016126438753,170.4486084202374L493.33367306995314,170.65091939576956L489.9052310752387,174.4489425550795ZM422.27011014089953,188.09448357639087L414.8327772974145,190.5529574644122L415.4447558149154,188.69210437441217L412.99934583535116,186.59563538604783L419.94776680792313,181.65848086323183L424.23517427791194,178.9024497444119L425.0694555991122,176.50758325906207L431.5748405968882,175.61146855961067L433.3447542189624,176.28941701110978L437.852389564532,176.20096702352146L439.475976422897,178.73921720206818L436.1608841514071,179.95187162870627L428.83748726892566,183.18584778434672L423.7892562495106,186.29558285267302ZM399.4527899830945,150.98655208422326L398.30018004448357,151.36977179320604L400.67568954127046,150.34142039781278L405.19305356188204,148.49308908909848L406.81122272800826,147.88104647261736ZM486.98006331030325,167.72348532020555L485.6826926565345,169.26754204975316L482.705927193501,169.4566816294772L480.4147626522973,168.8820005838976L481.84912262404464,167.13063359744035L484.85322584116295,165.77503984710143ZM419.70056386872614,142.94267554393463L419.6729352439161,142.9526602686684L416.07267788853517,144.28323719905654L408.69048543644703,147.11733763287344L408.69048543644703,147.11733763287344L405.42019525189426,148.36700814823115L406.18182608261475,148.06314974360447L406.1822540195503,148.0629799256443ZM478.9664804433128,163.10147295835475L479.865025019851,164.48090935159053L479.4169504583996,166.24737003652223L477.77117359725196,169.0134035431821L474.3331683714308,169.83841081445695L472.3933097690031,169.5463093722194L473.2380158124227,167.44007577570113L469.99281542771473,168.1223436740916L471.1265407469591,165.38996525738168L473.0309979406881,165.24698705747397L476.22861684232635,163.7120092587038ZM460.75493394354703,167.04830319386605L460.6325166273687,168.2611353334711L462.61929675257755,167.4765720800674L464.4274877072651,167.42037282648016L463.7605369201666,169.15863489044455L461.62390420011144,171.04856692713355L454.7397738175184,172.3294015967095L448.733188402352,174.46111378569157L445.7344847215321,174.81464893808214L446.46955959933564,173.56943151865062L451.60887461288604,171.53586432503596L443.01157884535024,172.68849426527657L441.1376480634721,172.1826358366598L446.7894999581289,168.33725561113124L449.264861661542,167.18970938714267L452.9593846404798,168.0188173734486L454.45439704332955,169.9112343323867L457.4613676292414,169.8723364190974L457.3474464285988,166.63275834293876L459.8492997210712,165.17493299801816L461.30541839602967,165.40294574633913ZM486.05380669322517,160.8580441330124L487.850515373749,161.60861203826732L491.4028709053323,161.0417253222821L492.9378576123518,161.85261393339988L492.4731105485182,163.15910571961354L495.9397593031374,164.12797556765696L501.5301388347387,163.5940248534925L504.51675722501784,162.32749994268198L508.4031516514568,161.31728634959256L511.62940493084193,160.93887384436022L514.2266575102765,161.71079381963528L515.2522620084369,162.93070371713867L514.3286676528058,164.03928308139905L511.47362961541705,165.34723950915685L508.6534278571406,165.45246553642636L502.7104366169184,167.0791617243126L498.35257347474453,167.90759066476755L489.3768062941805,167.838587207631L488.76128623033657,164.38686626845032L487.0450699506066,163.21375486206074L483.30180475031585,163.38013961051251L481.46469684877223,162.644137745703L482.50021134167315,161.18635407559844ZM451.8874366253701,163.10736654881862L449.0814242903044,165.86171136118548L446.671245504247,167.21523943888133L445.0054247180524,167.5015209131318L440.45671740136083,169.27880625499262L437.29340443734907,170.0060948234718L436.0190361584326,169.3003361213773L441.6123218615517,166.39612205793713L447.13183718738867,163.87732926102893L449.3368915114498,163.7779487768035ZM487.7491690381094,159.27491245490552L483.82732551925034,159.75434864904076L483.62134658616543,158.91991478879982L486.93809360022505,158.47218455455777ZM461.2155138402436,162.1139816822798L457.5001622782244,163.39403710379923L456.1776591410822,162.47130158691346L458.3495356887577,161.26531988070974L460.81773361336894,160.7165309515966L462.52235213098214,161.0369650210137ZM586.2145668971331,117.81941261781049L590.6482346195884,118.17463151979672L589.884933152403,118.51633557338113L587.5548309507382,118.403848485433L585.4362258753058,118.54846191988861L582.800065458322,118.21698342929557L585.4010107287666,118.09005784558889ZM464.3905197020865,158.97683768161602L462.08824204102774,159.803965635022L459.6813445843307,160.0249736902304L462.45392693377164,158.4083929670761ZM484.7960516279313,158.0683299098281L482.19595200350255,159.07904550604337L481.1190010092945,158.51601815100264L481.23920903608666,156.13329080637635L483.9655279397031,156.06116389145154L485.51836514966857,156.8662679278258ZM478.34686849382194,158.16160007493772L478.4065525742895,159.42995171738306L475.93960869166864,159.41416287148536L473.88884285987143,158.68267739781055L470.5419861236239,158.979563664164L472.58551030619276,157.83527029650833L471.29550220649287,157.2691756358709L471.9949422167509,156.05256137779963L474.5056158167271,156.1544519498537L477.85788970824404,156.80122223876543ZM575.4720776299522,119.30463017129364L579.7179027102356,118.54605930754855L583.9367235049302,118.92151180980665L589.8715839713774,118.96987420011175L591.7253171291278,119.15125560714432L598.3770406516954,119.31884860328233L599.217588923012,119.6079359410441L595.2587841313011,120.0403873963894L592.1444330422862,119.7964735052588L590.3834462636912,120.13005745156767L584.2319460127127,120.57888024222427L578.1750447435463,120.81826504668248L574.6992039007113,120.32547296833991L577.3141965284889,120.14160228206106L576.7808394932645,119.86628061127686L573.98330364152,119.88228557489674L573.2322676585368,119.62912251842982ZM566.83247743909,118.50056216794178L568.3288379342331,118.09196653446594L573.138751184403,118.05461787919296L575.6106844910709,118.43088093099948L575.7582817493673,118.95354030811444L573.7210832146743,119.06981058700507L574.159546069496,119.31532845823881L571.0092584942754,119.65400088053207L567.695858065397,119.2760873857851L568.9092464900687,118.95722530559715L566.190355013766,118.95396276891728ZM546.3115692445289,117.17755015047106L549.6331872131348,117.01859682040919L552.768923426685,116.81690662759559L552.4372693981849,116.96544645127778L550.096635763537,117.16119282580871L551.9100710240851,117.20742594635988L549.1211617185813,117.30570196559546L547.6740141978296,117.31096374893258L549.0093947912037,117.12910574993282L545.3493795525293,117.41527312523988L545.1226517748412,117.2861231476727ZM496.9204240741253,122.44230722940677L497.0417997561944,122.42173566486429L498.81461634627306,122.12236255791163L495.35201893021025,122.78536858818177L492.75312088402745,123.29103990957782L490.14438152388755,123.7121634871242L487.29362319330113,124.22645195426946L487.2940749668939,124.2263632481185ZM498.5962423609192,151.14048781856263L500.46989902059613,151.72506171705078L498.5624692110318,152.92410287572903L495.85873606476633,155.61847193286235L493.00585585902456,156.3073736754714L489.721462139911,156.44687286578488L488.23697751223926,155.46815103296734L488.4665278804332,154.36750749330486L489.76950755634914,153.39879264742513L487.1135028762907,153.82574858582223L485.81061992914647,153.07402136767473L485.3647802187165,151.86873177343193L487.8186270302795,149.4729557953503L489.1399692176929,149.08413114855136L488.7667720203888,148.53743551936589L491.58733030729087,147.96731450812877L492.99113996360387,149.1546811012783L497.3169247832908,149.52565399289142ZM514.7807060217765,138.84773420134388L519.7312978963924,138.15558554939986L522.3348968279898,138.1886350706821L523.2530101625704,138.64588748377986L522.3573623970309,140.0260515070634L520.4734417223423,141.02531474568707L520.1609192124758,141.70209516071412L522.5201588968611,141.11722733750543L521.6872128741098,142.97581033629496L520.5183174247578,144.0346105435749L520.4203126838538,146.37397598122436L517.9997456647495,147.39132084555297L517.5502094124018,148.07831570264062L513.4436990606922,149.26434802958636L515.6632713175647,149.16507113605655L514.9826555364843,149.83109292850173L517.1586553257911,150.84849040856642L516.3144827509485,152.06627492967982L514.3108420387022,153.34960522084464L514.1451756884383,154.60671701232184L512.1919562576851,155.93832415807475L512.7533961677747,156.55012775260417L515.7005724614716,155.83218574374501L516.1370057038534,156.52866390778075L512.129858402416,159.29503361219207L506.954442996331,159.38048692772065L501.60175970587176,160.861914574436L495.25011389568664,161.39783268705992L494.98391274343606,159.89646917894765L498.2197577227919,158.6321123253618L497.1863234266291,156.56357124532968L498.1804089790376,156.18000362348613L502.8736146283962,156.67667662788494L500.23545833854814,155.18161455825708L497.56085129942886,155.07352856083241L498.71468694343207,153.720572709865L501.3055847390968,152.5600371209345L501.51811313288493,151.51180241223727L499.28983136243676,150.79844934958703L498.5093202526074,149.50361295015972L502.19949869384135,148.96088321979124L503.35275032524737,149.04689327778425L505.0863366341694,147.71239565357075L502.0634268398294,147.96761540735713L497.55005707643556,148.94997955578458L495.24353911631164,148.42899152163494L494.2415286128949,147.52832663205334L492.9245974302287,146.98459408648193L492.78055821096086,146.13569406700532L494.4612224863048,145.3842472854477L497.8124432095658,144.32807565595135L499.19469170202547,143.16956026794685L500.4799721443767,143.05903266717365L501.8048569353453,143.50317792163116L502.11486533194176,142.12679040788692L504.79741432849266,140.9571608187917L507.5761532503253,140.2923390664253L508.2594136073116,140.40434881676083L510.57179911990283,139.49863735233595ZM541.3781670688733,129.175822523276L549.714249979322,128.0401763363251L551.7641455891443,128.61351825162814L547.9290437339532,131.04491183101607L549.4246759100761,131.03934721309804L550.7120942527724,130.02954019362772L554.7487212631495,129.42848679904017L553.4837456558499,128.76956136882183L556.4948292710369,128.71343812294572L560.2054852030576,129.31682183062202L558.7105341359853,128.42036577538858L557.7231649657291,127.03179064101562L560.1706526183815,126.32864569450993L563.6671431282149,126.2702183735363L567.7038993318616,127.61872459621759L569.2184561550561,127.8908161650553L569.0061354213506,128.95920465861644L570.4917995245079,128.27068850093178L579.826699721959,129.8407608836884L588.1659546366807,130.79226264088294L593.8220292909713,130.94666713441154L593.1037660409276,131.62694919691523L594.2789820672049,132.66228583574912L599.5494743979385,132.47197078938183L606.055554859857,133.3926291952409L605.9241422386082,134.0103924409674L613.3375469113853,134.54415164865765L612.0208790363251,135.7471374641072L616.0256748251124,135.76099196314948L618.3436505770404,136.46078577860163L618.1932297672375,137.44322566023538L616.8700092890399,138.19378803758315L623.0174928036027,138.6426962499139L626.2733847212295,139.40260012197626L621.2491878069065,139.78982671150692L622.6096417094417,140.55848271023405L625.8574034807942,140.2395951703595L631.6571162070256,140.59338613477564L637.9199783962921,141.8912863180106L637.34027052421,143.3728350408121L628.1463859164908,142.69173393154642L633.3614048360118,143.83656900098742L635.6319499280172,145.6654894649556L641.1424723968955,143.31727846427526L644.1581812622403,146.9075691590815L645.9452572169857,150.59089289050343L643.817798271321,153.5211247820522L642.0484551503728,154.32237689393736L642.8330059419579,156.08911622276332L647.1655577668245,160.0424637808764L647.4247678197128,163.7720157695498L646.2751989530606,164.44536178309914L643.2924232636889,168.16308708061513L645.0002867735236,170.86029300935206L649.06145243769,173.20171883458602L651.6518152236532,175.87964640250755L652.1151180886405,180.1496438594903L657.5507109128005,182.62996201330634L664.9516059388612,190.40552749916992L661.2616701464577,192.02557173679173L652.661096465666,190.23128667525089L646.7676472379644,192.11858919783265L641.1319670778831,190.85639980460388L634.315196368961,187.66188940496716L623.2842162522448,184.45472226612554L618.742133853511,182.45823500140222L614.1014439010721,179.3033664787194L606.064292177234,177.1170165557469L603.5871491060221,174.28476877729236L600.243911590375,173.5878131463341L597.2522231966749,168.99472783575396L599.0146473775645,166.7476773329177L597.8758793637085,165.17694154730373L594.4954152292494,162.68473696089228L593.1801480528782,165.3377552135962L591.7946044261514,166.38803926240536L587.4544525265145,166.19639426755873L584.2244866374957,164.1514699421199L582.6720259171285,162.3075325855924L584.6062867073624,161.67625592268217L590.2309297640378,161.14637506941864L580.0890170481371,159.97813230935952L578.63980719362,160.988263126599L575.761945315368,160.77181525405376L573.8875491056848,157.48857012339056L571.0127163169271,156.81616270717626L559.6369449149649,153.25424745613878L555.7451687681203,152.88579836317223L554.0572153251242,151.82697641192652L547.1596731526729,151.59308395684906L543.258577912495,152.34621123292192L534.615988388461,154.8517892376634L526.9955647632597,153.45274410047602L530.5572022290298,151.61335611397408L533.6806256688014,150.70040871840115L526.0239231792013,151.65494862215706L521.4327413662933,151.39851776598402L520.78908166713,150.347704633254L528.938765827183,145.55435394573226L528.291438554675,144.6383331321872L523.7104840432041,144.6979099921512L523.6410089713463,143.58258896416442L525.4325085427419,141.18810043832576L526.6467268686328,140.58265781927736L524.61861466084,139.87569974723908L526.0186211812244,138.7962652166952L528.310215924743,137.745807967183L531.0693657175567,136.93693352817957L533.48860231589,137.10446252695772L533.1631670940973,135.63788606330615L537.0526104817029,135.49536865534395L538.6365858857954,135.2125439014785L542.1423882228108,135.03307644278237L537.253514218875,135.02973286293593L535.0825848776917,134.4829460609547L534.2055242743008,133.0354319959343L536.7512810675222,132.26080993260967L535.2924881788474,131.67332517147042L536.656792244041,130.83460962561833Z"/></svg>