<svg viewBox="0,0,1152,1152" fill="none" stroke="currentColor" xmlns="http://www.w3.org/2000/svg" xmlns:xlink="http://www.w3.org/1999/xlink"><path/><path d="M506.57076574182173,1070.0368708285791C505.26683555398813,1069.4914673213925,503.9886269164046,1068.7630372500478,505.86997272592527,1068.511860803617C507.751318535446,1068.2606843571864,512.7922187920709,1068.4867615356695,517.8481358784921,1068.585636005044C522.9040529649134,1068.6845104744184,527.9749868811309,1068.6561822346841,533.0570101678956,1068.50067322618C538.1390334546603,1068.3451642176756,543.2321461119722,1068.0624744404013,548.3324035030556,1067.6528228387563C553.4326608941391,1067.243171237111,558.5400630189939,1066.706557811095,565.2001792382023,1066.6458417400056C571.8602954574106,1066.5851256689164,580.0731257709723,1067.0003069527536,588.2806069551905,1067.2015329701162C596.4880881394087,1067.4027589874788,604.6902201942835,1067.390029738367,612.87628984729,1067.1633618491787C621.0623595002965,1066.9366939599906,629.2323667514347,1066.496087430726,637.3756402882185,1065.8421177627054C645.5189138250022,1065.1881480946847,653.6354536474314,1064.3208152879076,654.5814073186752,1064.446306780077C655.5273609899191,1064.5717982722463,649.3027285099776,1065.690114063362,643.0615110117084,1066.6870777695765C636.8202935134392,1067.6840414757905,630.5624909968425,1068.5596530971034,628.1032679416094,1069.37537595353C625.6440448863763,1070.1910988099564,626.9834012925068,1070.9469329014967,628.2952654067752,1071.4423066169718C629.6071295210438,1071.937680332447,630.8915013434504,1072.172593671857,633.9677106403902,1071.9847350364835C637.04391993733,1071.79687640111,641.9119667088031,1071.186245790953,644.3459076652645,1070.8809422825025C646.7798486217258,1070.5756387740519,646.7796837631755,1070.5756623673071,643.8956747519277,1070.9371554042211C641.0116657406799,1071.2986484411351,635.2438125767345,1072.0216109217074,629.4651007095885,1072.6437056114373C623.6863888424423,1073.2658003011672,617.8968182720954,1073.7870272000548,612.0999158485105,1074.207068790756C606.3030134249256,1074.627110381457,600.4987791481025,1074.945966663972,594.6907488007346,1075.1634433996687C588.8827184533669,1075.3809201353652,583.0708920354542,1075.4970173242436,577.2588099546288,1075.511664243033C571.4467278738031,1075.5263111618224,565.6343901300646,1075.4395078105229,559.8253374425141,1075.2513070673906C554.0162847549637,1075.0631063242583,548.2105171236016,1074.7735081892936,542.4115712652045,1074.3826890778548C536.6126254068075,1073.9918699664165,530.8205013213757,1073.4998298785047,525.5087096403062,1072.970349573087C520.1969179592367,1072.4408692676695,515.3654586825295,1071.8739487447467,512.2849031751342,1071.4093000117707C509.2043476677388,1070.9446512787947,507.8746959296553,1070.582274335766,506.57076574182173,1070.0368708285791M683.3824193939045,1063.813568603435C687.6073924434572,1062.8282233077919,694.8592217139015,1061.1323630641664,698.4850557763629,1060.2844539608218C702.1108898388242,1059.4365448574774,702.1107286933021,1059.436586894414,699.285895089272,1060.1210577135419C696.4610614852421,1060.8055285326702,690.8115554227038,1062.17442813399,686.586662945912,1063.1597524111648C682.3617704691204,1064.1450766883397,679.5614915780752,1064.7468256413695,678.760410546883,1064.9102849440542C677.9593295156909,1065.0737442467387,679.1574463443518,1064.798913899078,683.3824193939045,1063.813568603435M1070.7194793006736,508.90378587226047C1070.7389530438527,510.38469024805016,1070.6629757106248,511.87854015384073,1070.4915912696604,513.384471087132C1070.320206828696,514.8904020204233,1070.053415279995,516.4084139812152,1069.6913710178915,517.9376284842391C1069.3293267557876,519.4668429872631,1068.8720297802813,521.0072600325194,1067.8010701645603,519.2924768437769C1066.7301105488393,517.5776936550342,1065.0454882929034,512.6077102322929,1063.141034593409,507.6685626403448C1061.2365808939146,502.7294150483968,1059.1122957508617,497.8211032872421,1056.7710537364744,492.95026926025304C1054.4298117220872,488.07943523326395,1051.871612836365,483.24607894044055,1049.0999188214785,478.45674085578327C1046.3282248065918,473.6674027711262,1043.3430356625406,468.92208289463537,1040.9612274242274,463.47406819768963C1038.5794191859143,458.026053500744,1036.8009918533396,451.87534398334356,1034.9087428362486,445.7569382407509C1033.0164938191576,439.6385324981582,1031.010423117551,433.55243053037356,1028.8920230394162,427.5031597643576C1026.7736229612813,421.4538889983417,1024.5428935066182,415.44144943409475,1022.2014941061642,409.4703137014097C1019.8600947057101,403.4991779687246,1017.4080253594651,397.56934606760143,1015.5357874989353,391.9052375747951C1013.6635496384056,386.2411290819887,1012.371143263591,380.8427439974991,1010.9708337661888,375.49409836955147C1009.5705242687867,370.14545274160383,1008.0623116487972,364.8465465701981,1006.4473180538047,359.6013223729091C1004.8323244588122,354.35609817562016,1003.1105498888168,349.16455595244787,1001.2832753867888,344.0305583395275C999.4560008847608,338.89656072660716,997.5232264507007,333.82010772393875,995.4863901167085,328.80497633842384C993.4495537827166,323.78984495290894,991.3086555487931,318.8360351845476,989.0652882963063,313.94723279063413C986.8219210438195,309.0584303967207,984.4760847727695,304.2346353772552,982.0295248435056,299.47943675533526C979.5829649142415,294.7242381334153,977.0356813267636,290.03763590904083,974.389569323219,285.4231170304684C971.7434573196746,280.808598151896,968.9985169000637,276.2661626191255,967.4757547945443,273.24303047871757C965.952992689025,270.2198983383097,965.6524088975972,268.71606959026434,965.2700991492492,267.2770561929512C964.887789400901,265.83804279563805,964.4237536956326,264.46384474905705,963.8782842403344,263.1553273964C963.3328147850361,261.846810043743,962.7059115797083,260.60397338500997,961.9979693901719,259.4276000441056C961.2900272006356,258.2512267032012,960.501046026891,257.1413166801256,960.1066087680856,256.58642562062533C959.7121715092802,256.031534561125,959.712278165414,256.03166246520004,961.5344952034211,258.2961072667115C963.3567122414282,260.56055206822293,967.0010396613085,265.08931376717084,970.5652313163006,269.68028866287335C974.1294229712926,274.27126355857575,977.6134788613963,278.9244516510327,981.0152765938997,283.63701834378315C984.4170743264027,288.34958503653354,987.7366139013055,293.12153032957747,990.9718731447897,297.94994728277607C994.2071323882737,302.7783642359746,997.3581113003393,307.66325284932776,1000.4228903897696,312.60163738067763C1003.4876694791998,317.5400219120275,1006.466248745995,322.53190236137397,1009.356813720144,327.5742378100235C1012.2473786942932,332.616573258673,1015.0499293757961,337.7093637066254,1017.7627585265003,342.84950676354265C1020.4755876772045,347.9896498204598,1023.0986952971099,353.1771454863417,1025.6304834599284,358.4088336789901C1028.1622716227469,363.64052187163844,1030.6027403284786,368.9164025910534,1032.9504029095272,374.23326191325003C1035.2980654905757,379.55012123544674,1037.552921946941,384.90795916042515,1039.7135986809942,390.3035118380853C1041.8742754150474,395.6990645157455,1043.9407724267885,401.1323319460874,1045.9118308620727,406.60000432939455C1047.882889297357,412.0676767127017,1049.7585091561843,417.56975404897406,1051.5375478616145,423.10288462135946C1053.3165865670444,428.636015193745,1054.999044119077,434.20019900224355,1056.5838956100304,439.7920464964182C1058.1687471009836,445.3838939905929,1059.6559925308572,451.0034051704438,1061.0447259099199,456.6471567815942C1062.433459288982,462.2909083927446,1063.7236806172332,467.9589004351945,1064.9146039267002,473.6476801213357C1066.1055272361673,479.33645980747696,1067.1971525268502,485.0460271373093,1068.1065281889898,490.1893723585176C1069.0159038511292,495.33271757972574,1069.743029884725,499.9098406923096,1070.1640553113164,502.93238167149593C1070.5850807379074,505.9549226506822,1070.700005557494,507.42288149647084,1070.7194793006736,508.90378587226047M939.361402648044,233.39488345773665C942.1651624664452,236.48007137989012,944.9031335317837,239.62729000548651,947.5738289352104,242.8348301757682C950.2445243386368,246.0423703460498,952.8479440801511,249.31023206101668,955.3826743216379,252.63664064431688C957.9174045631245,255.96304922761706,960.3834453045833,259.34800467925055,960.014473687977,259.4334423247482C959.6455020713707,259.51887997024596,956.4415180966993,256.30479980960786,953.152304473902,253.16367486114117C949.8630908511046,250.0225499126744,946.4886475801817,246.95438017637903,943.0312618350212,243.96124523609828C939.5738760898608,240.9681102958175,936.0335478704633,238.0500101515514,932.4126767863669,235.20892267103045C928.7918057022704,232.36783519050945,925.0903917534752,229.60376037373362,922.0012279857442,226.57153612568308C918.9120642180133,223.5393118776325,916.4351506313463,220.23893819830732,913.8951666409474,217.0055732414162C911.3551826505485,213.77220828452502,908.7521282564172,210.6058520500679,906.0874608193185,207.50827727216566C903.4227933822198,204.41070249426343,900.6965129021532,201.381909172916,897.9101457299375,198.42359302549312C895.123778557722,195.46527687807028,892.2773246933572,192.5774379045719,889.3723777686124,189.761692906869C886.4674308438679,186.945947909166,883.5039908587434,184.20229688725848,880.4837169415201,181.5322759171345C877.4634430242971,178.8622549470106,874.3863351749751,176.26586402867034,871.2541161605692,173.74455679222694C868.1218971461634,171.22324955578355,864.9345669666733,168.7770260012371,861.6939100988119,166.40725568515066C858.4532532309504,164.03748536906423,855.1592696747172,161.74416829143783,853.5123473214358,160.5975557302071C851.8654249681543,159.45094316897635,851.8655638178248,159.4510351241412,854.2605159234105,161.09796851825476C856.6554680289961,162.7449019123683,861.445233390497,166.03867674543054,866.1760643122138,169.41502853939573C870.9068952339306,172.79138033336093,875.5787917158632,176.2503090882291,880.1889077649054,179.78970771805996C884.7990238139473,183.32910634789081,889.3473594300989,186.94897485268427,893.8311438901947,190.64710810635287C898.3149283502902,194.3452413600215,902.7341616543299,198.12163936256525,907.0861517247885,201.97400163435577C911.4381417952469,205.8263639061463,915.7228886321242,209.75469044718366,919.6670804201816,213.48224773602593C923.6112722082389,217.20980502486813,927.2149089474764,220.7365930615152,930.4515016028272,224.011565689194C933.688094258178,227.2865383168728,936.5576428296423,230.30969553558324,939.361402648044,233.39488345773665M800.9651074490988,130.15662250213734C797.2398784415836,128.3767701232915,793.4715356861853,126.68236201262967,789.5124626309266,124.84413155795629C785.5533895756679,123.0059011032829,781.4035862205486,121.02384830459795,777.2237489647306,119.10998919222219C773.0439117089127,117.19613007984644,768.8340405523959,115.35046465377987,764.5960202625193,113.57381922195084C760.3579999726429,111.7971737901218,756.0918305494068,110.0895483525303,751.7994219649913,108.45170741633876C747.5070133805757,106.81386648014723,743.188365634981,105.24581004535565,741.0291204825444,104.46180897295221C738.8698753301078,103.67780790054879,738.8700327708297,103.6778621905335,741.6008759706962,104.67319158849055C744.3317191705628,105.6685209864476,749.7932481295744,107.65912549237699,755.2183780329525,109.74442599301386C760.6435079363306,111.82972649365074,766.0322387840755,114.00972298899508,771.3812879069528,116.28308748408348C776.7303370298301,118.55645197917188,782.0397044278403,120.92318447400434,787.3061557778186,123.38184321909193C792.5726071277968,125.84050196417955,797.7961424297433,128.3910869595223,801.9137249547479,130.45394549388996C806.0313074797523,132.51680402825764,809.0429372278146,134.09193610165022,808.7076944720301,133.9468538148316C808.3724517162455,133.80177152801298,804.6903364566137,131.93647488098316,800.9651074490988,130.15662250213734M381.23148987482494,116.78970958956609C379.4387216230015,117.98108045060086,377.72861263716203,119.36733900427733,376.8735581442422,120.06046828111558C376.0185036513224,120.75359755795381,376.0185036513224,120.75359755795381,373.3862100293199,121.95518348550017C370.7539164073174,123.15676941304655,365.48932916331233,125.55994126813927,360.268213129644,128.05337697424645C355.04709709597563,130.54681268035367,349.86945227264397,133.1305122374753,347.2740404470081,134.42531927801215C344.67862862137235,135.720126318549,344.66544979343234,135.72604084250108,344.59643384722517,135.44221159608946C344.527417901018,135.15838234967785,344.4025648365435,134.58480933290255,344.3652990963023,134.17830101002576C344.32803335606104,133.77179268714897,344.3783549400532,133.5323490581707,344.4035895165843,133.41258864849783C344.4288240931155,133.29282823882497,344.4289716621857,133.29275104845757,347.0276003788193,131.99070881189888C349.62622909545286,130.6886665753402,354.82333895964985,128.08465929259026,360.0643051261816,125.57213341456368C365.3052712927133,123.0596075365371,370.5900937615799,120.6385630632339,375.04920448464924,118.65934979355137C379.50831520771857,116.68013652386885,383.14171418499063,115.14275445780702,384.0206999147231,114.87230500897262C384.8996856444555,114.60185556013823,383.02425812664825,115.5983387285313,381.23148987482494,116.78970958956609M392.3370923210692,113.92664902589183C391.77084609955864,114.08517006780318,392.4889146936277,113.67910312973294,393.41419521217273,113.31754861878649C394.33947573071777,112.95599410784003,395.4719681737388,112.63895202401737,395.1129338767043,112.84198549305249C394.75389957966973,113.04501896208761,392.90333854257966,113.7681279839805,392.3370923210692,113.92664902589183M567.6257143578515,141.75055040308976C568.5368003763606,147.2885376166947,564.6917353930256,154.6512589314713,560.8656902544107,162.5335987079878C557.0396451157955,170.41593848450432,553.2326198219004,178.81789672276076,554.4556184927583,182.8338121580664C555.6786171636161,186.84972759337197,561.9316397992268,186.4796002257267,568.1865058333087,186.20143607728758C574.4413718673906,185.9232719288485,580.6980812999437,185.73707099961544,586.9522068332959,185.6429650468564C593.2063323666483,185.54885909409734,599.4578740007998,185.54684811781217,605.702408094854,185.63693354098393C611.9469421889081,185.7270189641557,618.1844687428649,185.90920078678428,619.82205215243,183.504992605706C621.4596355619952,181.1007844246278,618.4972758271689,176.11018623984265,615.5178099586959,171.29477341327262C612.5383440902228,166.47936058670257,609.5417720881032,161.8391331183476,612.9417874361646,159.83162275998745C616.3418027842259,157.82411240162733,626.1384054824684,158.449319153262,635.9001372216604,159.31709851105134C645.6618689608523,160.18487786884066,655.3887297409938,161.29522983278463,663.1677597792328,163.31899134086623C670.946789817472,165.3427528489478,676.7779891138089,168.279923901167,682.5783570639957,171.33415805129732C688.3787250141827,174.38839220142768,694.1482616182196,177.55968944946912,699.8819612312042,180.84529838070807C705.6156608441892,184.13090731194708,711.3135234661216,187.5308279263836,716.9706056363839,191.0421104558717C722.6276878066463,194.55339298535978,728.2439895252382,198.17603742989945,727.4348548775552,201.248084833695C726.625720229872,204.32013223749058,719.3911492159135,206.84158260054198,712.0725026666873,209.58942818929322C704.7538561174612,212.3372737780444,697.3511340329673,215.3115145924954,691.9522116141156,224.99332456744318C686.553289195264,234.67513454239096,683.158166442055,251.06451367783555,679.4195984362747,268.4751494374622C675.6810304304945,285.8857851970888,671.5990171721434,304.3176775808975,665.3845766577583,317.33900601588755C659.1701361433733,330.3603344508776,650.823268372954,337.971098937049,642.411900729649,345.8054305896901C634.0005330863439,353.6397622423312,625.5246655701529,361.6976610614419,614.3932278932892,366.23753240255456C603.2617902164254,370.7774037436672,589.4747823788889,371.7992476067819,575.6881353174982,373.05586445683645C561.9014882561074,374.31248130689113,548.1152019708625,375.8038711438858,541.7874528196477,392.1858397148323C535.4597036684327,408.56780828577877,536.5904916512478,439.8403555906773,542.0814325780951,452.8142912284956C547.5723735049422,465.788226866314,557.4234673758215,460.4635508370522,567.2811665268013,455.2303683828116C577.138865677781,449.99718592857107,587.0031701088615,444.85549704935175,596.5443689263175,451.0721164648033C606.0855677437735,457.2887358802548,615.3036609476052,474.8636635903772,624.4036962762514,492.64190386681304C633.5037316048977,510.42014414324876,642.4857090583586,528.401696985998,660.3756285460769,534.8451305527441C678.2655480337952,541.2885641194903,705.063409555771,536.1938784102334,731.1208755145086,531.3124872434893C757.1783414732463,526.4310960767452,782.4954118687459,521.7629994525141,799.8068420492715,522.8933087634649C817.1182722297972,524.0236180744156,826.424062195349,530.9523333205484,835.4879106815755,537.9165568281436C844.5517591678021,544.8807803357387,853.3736661747034,551.8805121047961,861.9289785650221,558.8961911324701C870.4842909553408,565.9118701601442,878.7730087290769,572.9434964464348,886.7719687655123,579.9714198581174C894.7709288019478,586.9993432698002,902.4801311010827,594.0235638068751,909.9014886140498,598.9429787947378C917.3228461270169,603.8623937826005,924.4563588538161,606.6770032212509,931.3575815892418,609.4697341784325C938.2588043246675,612.2624651356142,944.9277370687197,615.0333176113271,951.3513103293789,617.7768614062112C957.774883590038,620.5204052010954,963.9530973673042,623.236640315151,969.8738438594115,625.9202435858107C975.7945903515189,628.6038468564706,981.4578695584675,631.2548182837345,983.4740260109396,635.8495434397233C985.4901824634117,640.4442685957123,983.8592161614073,646.9827474804262,982.1158246431169,653.4997720703097C980.3724331248268,660.0167966601933,978.5166163902508,666.5123669552466,976.54991525245,672.9810899339683C974.5832141146494,679.44981291269,972.5056285736242,685.8916885750801,970.3188835685232,692.3013684802199C968.1321385634222,698.7110483853597,965.8362340942454,705.0885325332492,963.433076361927,711.4285259447606C961.0299186296088,717.768519356272,958.5195076341491,724.0710220314055,955.9039276729787,730.3308012452584C953.2883477118085,736.5905804591113,950.5675987849272,742.8076362116835,947.7439398252382,748.9768067213571C944.9202808655491,755.1459772310304,941.9937118730522,761.2672624978051,938.966662665113,767.3355802546034C935.9396134571736,773.4038980114018,932.812084033792,779.4192482582239,928.4712894478413,785.5079391213766C924.1304948618905,791.5966299845292,918.5764351133708,797.7586614640126,912.8749945598626,803.8210226021329C907.1735540063543,809.8833837402531,901.3247326478572,815.8460745370103,895.3362036010222,821.7012724895047C889.3476745541875,827.5564704419991,883.2194378190148,833.3041755502309,876.959533079477,838.9368473527857C870.699628339939,844.5695191553406,864.3080555960356,850.0871576522187,857.7932000044065,855.4825242082783C851.2783444127772,860.8778907643378,844.640205973422,866.1509853795787,837.8874933145358,871.2948902379807C831.1347806556499,876.4387950963825,824.267493777233,881.4535101979454,817.2946419291942,886.3324566968495C810.3217900811557,891.2114031957535,803.2433732634954,895.9545810919986,796.0686777092196,900.5557677716489C788.8939821549438,905.1569544512994,781.6230078640527,909.6161499143549,776.4145740921771,913.921429399035C771.2061403203015,918.2267088837152,768.0602470674415,922.37807239002,764.875386867529,926.4571329627828C761.6905266676164,930.5361935355457,758.4666995206511,934.5429511747667,755.2059003417768,938.4749264852657C751.9451011629022,942.4069017957645,748.6473299521186,946.2640947775411,745.314627381406,950.0441185865312C741.9819248106933,953.8241423955213,738.6142908800515,957.5269970317249,735.2138094927483,961.1503911561678C731.8133281054451,964.7737852806107,728.3799992614804,968.3177188932929,724.9159475163564,971.7799989961073C721.4518957712322,975.2422790989218,717.9571211249489,978.6229056918686,714.4337861558787,981.9197868317765C710.9104511868085,985.2166679716844,707.3585558949513,988.4298036585537,703.7802982051285,991.5572055931525C700.2020405153057,994.6846075277514,696.5974204275171,997.7262757100798,692.7755416637932,993.6027514077156C688.9536629000692,989.4792271053517,684.9145254604095,978.1905103182953,684.577986581537,969.190288631129C684.2414477026642,960.1900669439625,687.6075073845786,953.4783403566865,690.8988260755514,946.5255891162816C694.1901447665241,939.5728378758768,697.4067224665552,932.3790619823434,700.5422861632245,924.9582908326797C703.6778498598939,917.537519683016,706.7323995532014,909.889753277222,709.6999782198906,902.029906390604C712.6675568865799,894.170059503986,715.5481645266509,886.098132136544,718.3361833409427,877.8298662679082C721.1242021552348,869.5616003992724,723.8196321437475,861.0969960294427,726.4172166432281,852.4525609419387C729.0148011427087,843.8081258544344,731.5145401531573,834.9838600492558,733.9115586504572,825.9969727264155C736.3085771477571,817.0100854035751,738.6028751319083,807.8605765630731,740.7899782326041,798.5662896981961C742.9770813332999,789.2720028333191,745.0569895505402,779.8329379440671,731.179309486239,757.3151032676595C717.3016294219378,734.7972685912519,687.466361076095,699.2006641276885,675.3742857812712,675.0435360513626C663.2822104864472,650.8864079750368,668.9333282426421,638.1687562859486,674.4693808983968,625.3933866043345C680.0054335541516,612.6180169227206,685.4264211094661,599.7849292485807,677.9700203540195,586.721648066934C670.5136195985729,573.6583668852874,650.1798305323649,560.3648921961336,629.6516569922074,547.1758498317507C609.1234834520498,533.9868074673678,588.4009254379425,520.9021974277557,567.7084085582749,508.063726232287C547.0158916786071,495.2252550368183,526.3534159333789,482.63292268549293,505.94475623912285,470.4231043230716C485.5360965448668,458.2132859606502,465.38125290158285,446.38598158713285,446.8118556526035,429.15405326697845C428.2424584036242,411.922124946824,411.2585075489496,389.28557268003243,395.39854313994607,367.94387301705405C379.5385787309427,346.6021733540756,364.8026007676104,326.5553262949103,358.35186337793226,313.68268220136224C351.90112598825425,300.81003810781414,353.7356291722302,295.11159697988336,355.63254470273404,289.4942998349275C357.52946023323784,283.8770026899717,359.48878811026935,278.3408495279907,361.5088640459751,272.89054285568136C363.52893998168094,267.44023618337206,365.609763976061,262.07577600073427,367.74956854030455,256.8017189754026C369.88937310454804,251.52766195007084,372.08815823865524,246.3440080820451,373.12946237484465,241.06869271911967C374.1707665110341,235.79337735619424,374.054589649306,230.42640049836905,374.0196856885109,225.20057841958592C373.98478172771587,219.97475634080283,374.0311506678538,214.8900890410617,374.1587365575934,209.95271196155304C374.2863224473331,205.0153348820444,374.4951252866743,200.22524802276826,374.7848931225462,195.5882313678395C375.074660958418,190.95121471291077,375.44539379082056,186.4672682623294,373.7485420226162,182.6734005668102C372.0516902544119,178.87953287129093,368.2872538856007,175.77574393083384,364.6601227669176,172.93382276000295C361.0329916482345,170.09190158917207,357.54316577967955,167.5118481879674,352.1167749656247,167.2520417248438C346.69038415156996,166.9922352617202,339.3274283920154,169.05267573667763,332.0893212844664,171.32025646781403C324.85121417691727,173.58783719895038,317.7379557213737,176.06255818626565,315.9219763493873,175.39507831496917C314.105996977401,174.7275984436727,317.5872966889719,170.91791771376438,321.1409694073395,167.22431811754961C324.6946421257072,163.53071852133482,328.32068785087165,159.95320005881356,332.01601836582773,156.49480961747415C335.71134888078376,153.03641917613473,339.4759641855314,149.69715675597715,343.30665804664636,146.4798663274784C347.13735190776134,143.26257589897963,351.0341243252437,140.1672574621397,355.194938197261,137.74665335068178C359.3557520692784,135.32604923922392,363.7806073958307,133.58015945314807,368.23830875853884,131.90447884498818C372.69601012124707,130.22879823682825,377.18655752011097,128.62332680658426,381.7078214956537,127.08882588378874C386.2290854711966,125.55432496099324,390.78106602341813,124.0907945456462,395.36160456066705,122.69892865752654C399.94214309791596,121.30706276940681,404.55123962019223,119.98686140851446,408.2241904330138,120.23074158868148C411.8971412458354,120.47462176884851,414.63394634920223,122.28258349007491,417.4754859729223,124.388917172486C420.3170255966423,126.49525085489705,423.2632997407154,128.89995649849277,427.3554579849963,129.73283586520992C431.44761622927734,130.5657152319271,436.68565857376615,129.82676832176568,441.95075252688076,129.17799166114222C447.21584647999543,128.5292150005187,452.5079920417361,127.9706085894331,457.82398593788827,127.5025105458551C463.1399798340406,127.03441250227708,468.4798220646046,126.65682282620666,473.8402804851267,126.36997006828716C479.20073890564885,126.08311731036765,484.581813516129,125.88700147059909,489.98024721463327,125.78174125562039C495.37868091313766,125.67648104064172,500.79447369966596,125.66207645045294,506.2243474577758,125.7385362039851C511.6542212158856,125.81499595751727,517.098175945577,125.98232005477037,522.5529164843103,126.24040721641268C528.0076570230436,126.49849437805499,533.4731833708188,126.84734460408647,538.9461873080467,127.28674673951895C544.4191912452746,127.72614887495142,549.8996727719551,128.25610291978487,555.473532045472,130.3777064984182C561.047391318989,132.49931007705158,566.7146283393423,136.21256318948485,567.6257143578515,141.75055040308976M510.56382043122284,122.13108489479812C515.1684464861518,123.93565899615872,519.79531107691,125.89448079652739,518.7995546558958,127.34886351515314C517.8037982348817,128.80324623377888,511.18542080209517,129.7531898706617,504.58623631053496,130.82277795445003C497.98705181897486,131.89236603823835,491.4070602686411,133.08159856893215,489.10292831205555,132.1787864114061C486.79879635546996,131.27597425388,488.77052399263266,128.28111740813404,490.7650824292638,125.40695522298512C492.75964086589494,122.5327930378362,494.7770301019946,119.77932551328433,498.0769184795943,119.22775495218467C501.37680685719414,118.67618439108499,505.95919437629374,120.32651079343752,510.56382043122284,122.13108489479812M590.9246672813568,117.5576762356089C599.58683393504,118.53381362827464,608.2419444098085,119.72669629220859,614.1852767717877,121.46641805288425C620.1286091337669,123.20613981355991,623.3601633829566,125.49270067097733,626.5814753209614,127.8700039759301C629.8027872589663,130.24730728088292,633.0138568857863,132.71535303337112,636.2127339548655,135.2726422631799C639.4116110239447,137.82993149298866,642.5982955352832,140.47646420011804,645.7708520526511,143.21063301011125C648.943408570019,145.94480182010452,652.1018370934163,148.7666067329616,649.95114252777,148.2951537235442C647.8004479621236,147.82370071412677,640.3406303074337,144.0589897824348,632.8498914546092,140.53113451970626C625.3591526017846,137.00327925697772,617.8374925508255,133.71227966321263,610.2971779376967,130.66350283738964C602.756863324568,127.61472601156673,595.1978941492698,124.80817195368594,587.6325978930385,122.2484177088027C580.0673016368072,119.6886634639195,572.4956782996427,117.37570903203381,573.0444780473593,116.59892787678973C573.593277795076,115.82214672154566,582.2625006276737,116.58153884294319,590.9246672813568,117.5576762356089M583.3412861533578,89.53041664355408C584.0214546706917,90.8691514795533,582.2601420050263,93.32174924910271,580.4960185529566,96.07438323576457C578.7318951008868,98.82701722242643,576.9649608624127,101.87968742620075,574.2072536334687,102.19068095342641C571.4495464045245,102.50167448065207,567.7010661851108,100.07099133132908,563.9582086510583,97.86356489328625C560.215351117006,95.65613845524342,556.4781162683151,93.67196872848075,558.5556549799252,92.02224036525585C560.6331936915352,90.37251200203097,568.5255059634461,89.05722500234386,574.0324869495682,88.51201745372482C579.5394679356904,87.96680990510579,582.6611176360238,88.19168180755484,583.3412861533578,89.53041664355408M627.0486843685884,84.1734930105813C634.0275458960386,85.04007290324108,640.0765106966991,86.61088243590183,645.9065954754392,88.06960144933255C651.7366802541794,89.5283204627633,657.3478850109993,90.87494895696403,662.9384522218885,92.33639005376067C668.5290194327778,93.79783115055729,674.0989490977362,95.37408484994982,679.6442755699433,97.06402889980086C685.1896020421505,98.75397294965192,690.7103253216063,100.55760734996149,696.2025147951722,102.47364795937487C701.694704268738,104.38968856878826,707.158359936414,106.41813538730547,710.3423534439404,108.88385344052408C713.5263469514671,111.34957149374266,714.4306782988442,114.25256078166267,715.2483614694025,117.44089138567335C716.0660446399608,120.62922198968404,716.7970796337,124.10289390978544,717.4401026257736,127.855426635311C718.0831256178471,131.60795936083656,718.6381366082547,135.6393528917863,719.104100163966,139.9420862275076C719.5700637196773,144.24481956322884,719.946979840692,148.81889270372162,718.1267018289742,149.7774472964911C716.3064238172565,150.7360018892605,712.2889516728059,148.07903793430663,708.2475604247737,145.49993685689174C704.2061691767416,142.9208357794769,700.1408588251278,140.41959757960106,696.0538348018155,137.99757917961367C691.9668107785033,135.57556077962627,687.8580730834925,133.23276217952727,683.7298507080112,130.97045434814356C679.6016283325297,128.70814651675985,675.4539212765775,126.5263294540914,671.2889796722703,124.42618679644063C667.1240380679633,122.3260441387899,662.9418619153012,120.30757588615687,658.7447200458936,118.37187705807376C654.547578176486,116.43617822999063,650.3354705903329,114.58324882645745,646.1106823568538,112.81409406213925C641.8858941233747,111.04493929782107,637.6484252425695,109.35955917271788,633.4005745423666,107.75886800596935C629.1527238421638,106.1581768392208,624.8944913225632,104.6421746308269,619.732279732789,103.39842184322679C614.5700681430149,102.1546690556267,608.5038774830672,101.1831656888204,602.431280051604,100.32696239306948C596.3586826201407,99.47075909731855,590.2796784171619,98.72985587262302,587.8292597579059,97.48021412926273C585.37884109865,96.23057238590248,586.5570079831168,94.47219212387749,587.7320435596698,92.84276757684181C588.9070791362229,91.2133430298061,590.078983404862,89.71287419775972,591.7505075179735,88.47898416856701C593.422031631085,87.2450941393743,595.5931755886688,86.27778291303527,597.7600786985282,85.40608412085037C599.9269818083876,84.53438532866545,602.0896440705227,83.75829897063466,607.1253543287103,83.45143091794867C612.1610645868979,83.14456286526269,620.069822841138,83.30691311792151,627.0486843685884,84.1734930105813"/></svg>