<?xml version="1.0" encoding="UTF-8" standalone="no"?>
<svg
   viewBox="0,0,1152,1152"
   fill="none"
   stroke="currentColor"
   version="1.1"
   id="svg2"
   sodipodi:docname="sketchy-earth-lod1.svg"
   inkscape:version="1.4 (86a8ad7, 2024-10-11)"
   xmlns:inkscape="http://www.inkscape.org/namespaces/inkscape"
   xmlns:sodipodi="http://sodipodi.sourceforge.net/DTD/sodipodi-0.dtd"
   xmlns="http://www.w3.org/2000/svg"
   xmlns:svg="http://www.w3.org/2000/svg">
  <defs
     id="defs2" />
  <sodipodi:namedview
     id="namedview2"
     pagecolor="#ffffff"
     bordercolor="#000000"
     borderopacity="0.25"
     inkscape:showpageshadow="2"
     inkscape:pageopacity="0.0"
     inkscape:pagecheckerboard="0"
     inkscape:deskcolor="#d1d1d1"
     inkscape:zoom="0.70052083"
     inkscape:cx="575.28625"
     inkscape:cy="576"
     inkscape:window-width="1920"
     inkscape:window-height="1009"
     inkscape:window-x="-8"
     inkscape:window-y="-8"
     inkscape:window-maximized="1"
     inkscape:current-layer="svg2" />
  <path
     d="m 677.73746,1151.8688 -14.16841,3.7797 -12.96286,0.3383 z m 0.7899,-19.0175 -22.34512,4.4556 13.54633,-5.5254 13.45191,-6.0984 z m -280.00698,2.0391 1.06329,0.3396 7.58804,2.4645 -5.5e-4,-2e-4 z m 120.36639,26.1729 5.46636,0.5514 1.08067,0.058 2.63175,0.2274 v 0 l -5.37957,-0.8275 18.20168,1.4003 6.37857,0.1858 -4.05023,-0.8935 -13.85194,-0.906 -11.24662,-2.3649 -11.17544,-3.0171 -16.45283,-1.5807 -16.28322,-3.6279 8.04318,0.216 4.03417,-3.2723 4.21188,-4.3279 18.88651,0.6044 18.9802,-0.1286 13.03646,-2.1009 18.60932,2.4452 18.63255,1.8094 -9.40169,-7.4498 21.41955,2.9179 23.37513,-1.7525 15.18789,1.6407 15.13986,1.0987 29.34138,-4.3178 12.60422,-8.344 12.38966,-9.4377 -2.331,13.4134 -10.43354,5.2217 -10.52403,4.7509 -14.88387,2.9537 -14.94156,2.5529 -14.13051,0.1802 -5.26528,3.8271 -5.30971,3.2812 8.79796,3.2103 17.2414,-0.4 24.93377,-2.6757 13.17553,-3.7142 15.16296,-2.1915 15.03913,-2.7713 25.1633,-6.095 24.73883,-7.5598 -0.17634,0.061 -5.4e-4,2e-4 -19.13504,6.1128 -19.33671,5.4414 -19.51483,4.7632 -19.66918,4.0792 -19.79955,3.3903 -19.90582,2.6972 -19.98782,2.0009 -20.04547,1.3021 -20.07871,0.6017 -20.08747,-0.099 -20.07177,-0.8004 -20.03161,-1.5003 z m -358.47795,-178.63432 -7.35921,-8.17123 -7.03386,-8.46472 v 0 l 6.22376,6.41988 13.83777,15.86032 14.70709,15.02247 -4.1e-4,-4e-4 -14.21367,-14.19468 z m -43.28991,-54.0457 6.19517,6.34312 6.6169,6.02391 9.87402,14.15609 10.43236,13.69208 -17.02804,-19.73007 z m -80.096369,-175.54532 -0.333642,2.36139 -1.118109,-4.07324 0.0928,-3.00357 z M 764.5825,366.15195 l 25.67735,11.33134 25.1604,11.85169 -30.22749,4.03997 z m 68.36515,-222.57069 16.7104,10.10857 16.4001,10.60986 -16.07711,-0.55184 -16.48624,0.093 z m -23.48705,-82.323379 12.46401,6.049705 12.24653,6.519111 -11.72318,-4.767064 -11.9148,-4.35579 -0.39119,-2.055129 z m 343.2403,468.112959 -1.2355,-9.33636 -1.7593,-9.27323 -4.6088,-21.74075 -5.9907,-21.49651 -5.18,-21.58026 -6.0038,-21.36765 -6.8185,-21.12325 -7.6231,-20.84742 -8.6416,-24.45782 -9.9739,-23.87186 -6.6309,-15.21424 -7.6646,-14.66519 2e-4,5e-4 9.6225,17.63308 9.0012,17.95815 8.3689,18.26135 7.7266,18.5423 7.0747,18.80065 6.4143,19.03611 5.746,19.24837 5.0708,19.43717 4.3893,19.6023 3.7026,19.74355 3.0112,19.86073 z M 384.19355,47.784405 l 0.18674,-0.06543 -4.30101,2.424375 -3.2378,1.558831 v 0 l -8.48174,5.265851 -8.09752,6.230145 -19.90518,7.156877 0.22076,-3.000948 -0.0508,0.02157 -18.18561,8.778045 -15.71065,6.902537 -15.12264,7.989355 0.0598,-0.03744 4.9e-4,-2.89e-4 17.55023,-9.77271 17.88061,-9.154262 18.18919,-8.524661 18.47561,-7.884675 18.73954,-7.235082 z m 16.40688,-4.74887 -6.40206,2.216307 1.81023,-0.870503 z m 212.79043,6.767642 15.73581,8.517853 0.65026,-9.857415 21.94767,10.20064 -15.16184,2.180225 -14.02068,11.673903 -14.16841,13.478978 13.82904,19.718879 29.20203,4.7949 29.01301,6.06611 12.46285,17.79196 13.7336,-25.60981 -13.17779,-15.415201 -13.47155,-14.128825 20.71804,2.650237 20.55422,3.340012 21.25981,14.461272 2.85128,-10.891893 16.22392,10.195157 15.97413,10.870131 24.98403,11.76191 24.47121,12.84003 -10.29715,11.98514 -16.19646,-0.23567 -16.47424,0.32267 13.92682,13.06125 13.63557,13.63561 27.08852,2.21705 -21.31548,16.94327 -29.7274,-1.00929 -20.7328,43.66637 5.84239,19.20686 -35.43831,40.5298 5.70159,24.20327 5.32174,24.83321 -13.92043,-21.35613 -14.24298,-20.79865 -23.11833,0.25187 -23.3208,0.74944 -23.48285,1.24571 -23.60417,1.73982 -22.90043,18.55246 -3.71644,44.94765 33.36112,40.49165 33.61969,-16.49728 33.22576,-15.6083 -13.67288,53.79029 27.59844,4.12373 27.2738,4.49574 -4.2557,35.43308 24.14969,25.57392 42.75275,1.46199 46.6433,-23.04973 40.34979,0.88218 38.27954,1.6057 20.72375,23.41782 19.47417,23.70029 30.54752,5.6333 15.7366,28.25881 14.0794,28.35775 25.593,13.29457 22.6432,13.19741 10.7338,13.02488 9.6066,12.93208 -1.5459,17.63079 -2.0372,17.56189 -12.0827,23.76875 -13.5011,23.44763 -8.5695,28.1309 -9.8243,27.69911 -10.3479,15.90007 -10.8973,15.65065 -13.1576,5.31019 -13.7602,4.9927 -14.33224,20.87389 -15.13105,20.37334 -18.32825,18.32938 -19.12446,17.70363 -19.88002,17.04028 -20.59334,16.34071 -20.32181,7.94428 -20.83536,7.32842 -10.63952,14.43081 -10.93381,14.01138 -19.40822,13.74697 -19.8094,13.05291 7.3836,6.4278 -13.66586,11.2179 -13.88277,10.7631 -14.08511,10.2971 -14.27269,9.8202 -15.47295,-9.4839 7.07034,-17.7928 6.69299,-18.8493 18.51324,-25.20749 17.77828,-26.8006 16.97133,-28.28509 16.09561,-29.65502 10.8599,-30.38107 9.93952,-31.43398 8.98154,-32.36787 7.98954,-33.17925 -43.66075,-35.62718 -20.7807,-48.53943 -22.75975,-49.47309 6.78306,-27.6001 6.32035,-27.64871 27.2199,-30.9124 -28.09143,-36.9565 -27.79123,-12.9745 -28.29369,-12.70848 -19.20354,-27.29987 -34.13601,-16.3146 -34.5076,-15.68602 -42.22221,-10.51454 -42.27323,-9.53614 -22.39235,-42.14709 -35.54784,-34.30984 -34.75387,-32.07394 39.6629,60.92503 -41.54002,-34.31281 -15.48878,-51.28236 -36.68178,-47.96668 4.85549,-18.10319 5.1532,-17.45781 5.44214,-16.78277 5.72184,-16.07921 -6.4841,-31.47099 -4.88838,-27.01688 -17.80445,-8.006801 -17.0717,-6.071808 -17.66047,5.599922 -17.41127,6.15596 -17.1426,6.705117 -16.85474,7.24677 13.30144,-8.6706 4.58954,-10.638238 5.24314,-9.372646 18.43111,-7.78503 18.72551,-7.135261 -6.05682,-3.711095 24.36512,-9.319753 24.76842,-8.219556 17.31633,-3.374829 7.36399,1.292653 7.50879,1.831558 7.64618,2.36865 7.77599,2.903395 16.25067,-2.988908 16.33968,-2.539867 19.81401,3.078085 19.97147,4.276685 17.66747,-0.45932 17.69937,0.05507 17.71428,0.569416 17.71216,1.083211 -4.99166,-13.253932 z m -74.00326,-11.662511 24.7534,1.324962 12.78179,8.502639 -22.58705,2.212224 -22.54522,3.080614 -11.97999,-10.360167 z m 79.64708,-0.108481 10.16404,-1.694508 25.33517,4.396783 25.18016,5.541132 8.74717,6.31021 15.80584,3.317792 15.70815,3.737693 5.99716,8.579313 5.78259,9.34608 -13.34332,1.593421 -23.72796,-7.084288 -23.9425,-6.11515 14.48715,-0.609035 -8.41607,-10.362114 -26.42311,-7.507418 -16.09683,-0.635538 -16.14121,-0.19014 z m -102.91533,5.376381 -14.14384,-1.483803 12.65855,-7.084669 21.86806,2.279403 z m 44.5577,-13.451773 3.22807,2.988473 -28.28013,-0.563404 z m 31.51334,-2.080494 14.92668,3.525321 19.09904,-0.256812 1.89286,3.287564 -27.9749,-1.04925 z m 11.29845,-5.181054 -8.78578,2.520081 -8.77455,-3.398819 5.90674,-1.781557 z m 12.88298,-5.187829 11.11459,0.946002 0.46695,6.397208 -1.90941,5.162983 -21.20912,-0.69935 2.81325,-6.046001 -15.49404,-4.172245 12.45161,-1.617114 z m 25.98975,-0.483006 9.48525,0.954707 0.90575,0.693514 13.72229,1.523491 0.88501,-0.212756 23.57155,4.418482 21.62294,4.791223 21.42285,5.637819 13.10857,4.857993 24.27695,7.920222 4.44669,3.44471 4.2061,4.106473 3.96032,4.763184 3.70968,5.414033 16.35197,11.698607 15.8175,12.921132 -19.52734,-3.761317 -14.60754,-7.638668 -14.78834,-7.189601 -14.95612,-6.734205 -15.11073,-6.272884 -18.94214,-9.918759 -19.25705,-8.717324 -13.54812,-4.249524 -13.62861,-3.840239 -22.77736,-1.339696 -20.32034,-5.257642 1.01149,-6.353211 4.57013,-1.80038 z"
     id="path2" />
</svg>
